<?xml version="1.0" encoding="utf-8" standalone="no"?>
<!DOCTYPE svg PUBLIC "-//W3C//DTD SVG 1.1//EN"
  "http://www.w3.org/Graphics/SVG/1.1/DTD/svg11.dtd">
<svg xmlns:xlink="http://www.w3.org/1999/xlink" width="562.275781pt" height="502.3465pt" viewBox="0 0 562.275781 502.3465" xmlns="http://www.w3.org/2000/svg" version="1.1">
 <metadata>
  <rdf:RDF xmlns:dc="http://purl.org/dc/elements/1.1/" xmlns:cc="http://creativecommons.org/ns#" xmlns:rdf="http://www.w3.org/1999/02/22-rdf-syntax-ns#">
   <cc:Work>
    <dc:type rdf:resource="http://purl.org/dc/dcmitype/StillImage"/>
    <dc:date>2026-03-13T14:58:16.865453</dc:date>
    <dc:format>image/svg+xml</dc:format>
    <dc:creator>
     <cc:Agent>
      <dc:title>Matplotlib v3.10.6, https://matplotlib.org/</dc:title>
     </cc:Agent>
    </dc:creator>
   </cc:Work>
  </rdf:RDF>
 </metadata>
 <defs>
  <style type="text/css">*{stroke-linejoin: round; stroke-linecap: butt}</style>
 </defs>
 <g id="figure_1">
  <g id="patch_1">
   <path d="M 0 502.3465 
L 562.275781 502.3465 
L 562.275781 0 
L 0 0 
z
" style="fill: #ffffff"/>
  </g>
  <g id="axes_1">
   <g id="patch_2">
    <path d="M 458.634531 273.424937 
C 458.634531 246.782652 453.386582 220.399429 443.191021 195.785166 
C 432.995459 171.170903 418.050564 148.804287 399.211623 129.965346 
C 380.372682 111.126405 358.006065 96.18151 333.391803 85.985948 
C 308.77754 75.790387 282.394317 70.542437 255.752031 70.542437 
C 229.109745 70.542437 202.726522 75.790387 178.11226 85.985948 
C 153.497997 96.18151 131.131381 111.126405 112.29244 129.965346 
C 93.453499 148.804287 78.508603 171.170903 68.313042 195.785166 
C 58.117481 220.399429 52.869531 246.782652 52.869531 273.424937 
C 52.869531 300.067223 58.117481 326.450446 68.313042 351.064709 
C 78.508603 375.678972 93.453499 398.045588 112.29244 416.884529 
C 131.131381 435.72347 153.497997 450.668365 178.11226 460.863927 
C 202.726522 471.059488 229.109745 476.307437 255.752031 476.307437 
C 282.394317 476.307437 308.77754 471.059488 333.391803 460.863927 
C 358.006065 450.668365 380.372682 435.72347 399.211623 416.884529 
C 418.050564 398.045588 432.995459 375.678972 443.191021 351.064709 
C 453.386582 326.450446 458.634531 300.067223 458.634531 273.424937 
M 255.752031 273.424937 
C 255.752031 273.424937 255.752031 273.424937 255.752031 273.424937 
C 255.752031 273.424937 255.752031 273.424937 255.752031 273.424937 
C 255.752031 273.424937 255.752031 273.424937 255.752031 273.424937 
C 255.752031 273.424937 255.752031 273.424937 255.752031 273.424937 
C 255.752031 273.424937 255.752031 273.424937 255.752031 273.424937 
C 255.752031 273.424937 255.752031 273.424937 255.752031 273.424937 
C 255.752031 273.424937 255.752031 273.424937 255.752031 273.424937 
C 255.752031 273.424937 255.752031 273.424937 255.752031 273.424937 
C 255.752031 273.424937 255.752031 273.424937 255.752031 273.424937 
C 255.752031 273.424937 255.752031 273.424937 255.752031 273.424937 
C 255.752031 273.424937 255.752031 273.424937 255.752031 273.424937 
C 255.752031 273.424937 255.752031 273.424937 255.752031 273.424937 
C 255.752031 273.424937 255.752031 273.424937 255.752031 273.424937 
C 255.752031 273.424937 255.752031 273.424937 255.752031 273.424937 
C 255.752031 273.424937 255.752031 273.424937 255.752031 273.424937 
C 255.752031 273.424937 255.752031 273.424937 255.752031 273.424937 
z
" style="fill: #ffffff"/>
   </g>
   <g id="patch_3">
    <path d="M 255.752031 79.278894 
L 388.999349 140.17762 
L 395.115359 273.424937 
L 343.811484 361.48439 
L 255.752031 395.189742 
L 180.38408 348.792889 
L 216.717469 273.424937 
L 228.292356 245.965262 
z
" clip-path="url(#pa119af980d)" style="fill: #1f77b4; opacity: 0.2"/>
   </g>
   <g id="matplotlib.axis_1">
    <g id="xtick_1">
     <g id="line2d_1">
      <path d="M 255.752031 273.424937 
L 255.752031 70.542437 
" clip-path="url(#pa119af980d)" style="fill: none; stroke: #b0b0b0; stroke-width: 0.8; stroke-linecap: square"/>
     </g>
     <g id="text_1">
      <!-- Magnesium -->
      <g transform="translate(226.921562 59.301812) scale(0.1 -0.1)">
       <defs>
        <path id="DejaVuSans-4d" d="M 628 4666 
L 1569 4666 
L 2759 1491 
L 3956 4666 
L 4897 4666 
L 4897 0 
L 4281 0 
L 4281 4097 
L 3078 897 
L 2444 897 
L 1241 4097 
L 1241 0 
L 628 0 
L 628 4666 
z
" transform="scale(0.015625)"/>
        <path id="DejaVuSans-61" d="M 2194 1759 
Q 1497 1759 1228 1600 
Q 959 1441 959 1056 
Q 959 750 1161 570 
Q 1363 391 1709 391 
Q 2188 391 2477 730 
Q 2766 1069 2766 1631 
L 2766 1759 
L 2194 1759 
z
M 3341 1997 
L 3341 0 
L 2766 0 
L 2766 531 
Q 2569 213 2275 61 
Q 1981 -91 1556 -91 
Q 1019 -91 701 211 
Q 384 513 384 1019 
Q 384 1609 779 1909 
Q 1175 2209 1959 2209 
L 2766 2209 
L 2766 2266 
Q 2766 2663 2505 2880 
Q 2244 3097 1772 3097 
Q 1472 3097 1187 3025 
Q 903 2953 641 2809 
L 641 3341 
Q 956 3463 1253 3523 
Q 1550 3584 1831 3584 
Q 2591 3584 2966 3190 
Q 3341 2797 3341 1997 
z
" transform="scale(0.015625)"/>
        <path id="DejaVuSans-67" d="M 2906 1791 
Q 2906 2416 2648 2759 
Q 2391 3103 1925 3103 
Q 1463 3103 1205 2759 
Q 947 2416 947 1791 
Q 947 1169 1205 825 
Q 1463 481 1925 481 
Q 2391 481 2648 825 
Q 2906 1169 2906 1791 
z
M 3481 434 
Q 3481 -459 3084 -895 
Q 2688 -1331 1869 -1331 
Q 1566 -1331 1297 -1286 
Q 1028 -1241 775 -1147 
L 775 -588 
Q 1028 -725 1275 -790 
Q 1522 -856 1778 -856 
Q 2344 -856 2625 -561 
Q 2906 -266 2906 331 
L 2906 616 
Q 2728 306 2450 153 
Q 2172 0 1784 0 
Q 1141 0 747 490 
Q 353 981 353 1791 
Q 353 2603 747 3093 
Q 1141 3584 1784 3584 
Q 2172 3584 2450 3431 
Q 2728 3278 2906 2969 
L 2906 3500 
L 3481 3500 
L 3481 434 
z
" transform="scale(0.015625)"/>
        <path id="DejaVuSans-6e" d="M 3513 2113 
L 3513 0 
L 2938 0 
L 2938 2094 
Q 2938 2591 2744 2837 
Q 2550 3084 2163 3084 
Q 1697 3084 1428 2787 
Q 1159 2491 1159 1978 
L 1159 0 
L 581 0 
L 581 3500 
L 1159 3500 
L 1159 2956 
Q 1366 3272 1645 3428 
Q 1925 3584 2291 3584 
Q 2894 3584 3203 3211 
Q 3513 2838 3513 2113 
z
" transform="scale(0.015625)"/>
        <path id="DejaVuSans-65" d="M 3597 1894 
L 3597 1613 
L 953 1613 
Q 991 1019 1311 708 
Q 1631 397 2203 397 
Q 2534 397 2845 478 
Q 3156 559 3463 722 
L 3463 178 
Q 3153 47 2828 -22 
Q 2503 -91 2169 -91 
Q 1331 -91 842 396 
Q 353 884 353 1716 
Q 353 2575 817 3079 
Q 1281 3584 2069 3584 
Q 2775 3584 3186 3129 
Q 3597 2675 3597 1894 
z
M 3022 2063 
Q 3016 2534 2758 2815 
Q 2500 3097 2075 3097 
Q 1594 3097 1305 2825 
Q 1016 2553 972 2059 
L 3022 2063 
z
" transform="scale(0.015625)"/>
        <path id="DejaVuSans-73" d="M 2834 3397 
L 2834 2853 
Q 2591 2978 2328 3040 
Q 2066 3103 1784 3103 
Q 1356 3103 1142 2972 
Q 928 2841 928 2578 
Q 928 2378 1081 2264 
Q 1234 2150 1697 2047 
L 1894 2003 
Q 2506 1872 2764 1633 
Q 3022 1394 3022 966 
Q 3022 478 2636 193 
Q 2250 -91 1575 -91 
Q 1294 -91 989 -36 
Q 684 19 347 128 
L 347 722 
Q 666 556 975 473 
Q 1284 391 1588 391 
Q 1994 391 2212 530 
Q 2431 669 2431 922 
Q 2431 1156 2273 1281 
Q 2116 1406 1581 1522 
L 1381 1569 
Q 847 1681 609 1914 
Q 372 2147 372 2553 
Q 372 3047 722 3315 
Q 1072 3584 1716 3584 
Q 2034 3584 2315 3537 
Q 2597 3491 2834 3397 
z
" transform="scale(0.015625)"/>
        <path id="DejaVuSans-69" d="M 603 3500 
L 1178 3500 
L 1178 0 
L 603 0 
L 603 3500 
z
M 603 4863 
L 1178 4863 
L 1178 4134 
L 603 4134 
L 603 4863 
z
" transform="scale(0.015625)"/>
        <path id="DejaVuSans-75" d="M 544 1381 
L 544 3500 
L 1119 3500 
L 1119 1403 
Q 1119 906 1312 657 
Q 1506 409 1894 409 
Q 2359 409 2629 706 
Q 2900 1003 2900 1516 
L 2900 3500 
L 3475 3500 
L 3475 0 
L 2900 0 
L 2900 538 
Q 2691 219 2414 64 
Q 2138 -91 1772 -91 
Q 1169 -91 856 284 
Q 544 659 544 1381 
z
M 1991 3584 
L 1991 3584 
z
" transform="scale(0.015625)"/>
        <path id="DejaVuSans-6d" d="M 3328 2828 
Q 3544 3216 3844 3400 
Q 4144 3584 4550 3584 
Q 5097 3584 5394 3201 
Q 5691 2819 5691 2113 
L 5691 0 
L 5113 0 
L 5113 2094 
Q 5113 2597 4934 2840 
Q 4756 3084 4391 3084 
Q 3944 3084 3684 2787 
Q 3425 2491 3425 1978 
L 3425 0 
L 2847 0 
L 2847 2094 
Q 2847 2600 2669 2842 
Q 2491 3084 2119 3084 
Q 1678 3084 1418 2786 
Q 1159 2488 1159 1978 
L 1159 0 
L 581 0 
L 581 3500 
L 1159 3500 
L 1159 2956 
Q 1356 3278 1631 3431 
Q 1906 3584 2284 3584 
Q 2666 3584 2933 3390 
Q 3200 3197 3328 2828 
z
" transform="scale(0.015625)"/>
       </defs>
       <use xlink:href="#DejaVuSans-4d"/>
       <use xlink:href="#DejaVuSans-61" transform="translate(86.279297 0)"/>
       <use xlink:href="#DejaVuSans-67" transform="translate(147.558594 0)"/>
       <use xlink:href="#DejaVuSans-6e" transform="translate(211.035156 0)"/>
       <use xlink:href="#DejaVuSans-65" transform="translate(274.414062 0)"/>
       <use xlink:href="#DejaVuSans-73" transform="translate(335.9375 0)"/>
       <use xlink:href="#DejaVuSans-69" transform="translate(388.037109 0)"/>
       <use xlink:href="#DejaVuSans-75" transform="translate(415.820312 0)"/>
       <use xlink:href="#DejaVuSans-6d" transform="translate(479.199219 0)"/>
      </g>
     </g>
    </g>
    <g id="xtick_2">
     <g id="line2d_2">
      <path d="M 255.752031 273.424937 
L 399.211623 129.965346 
" clip-path="url(#pa119af980d)" style="fill: none; stroke: #b0b0b0; stroke-width: 0.8; stroke-linecap: square"/>
     </g>
     <g id="text_2">
      <!-- Urea Nitrogen, Urine -->
      <g transform="translate(357.740024 122.825226) scale(0.1 -0.1)">
       <defs>
        <path id="DejaVuSans-55" d="M 556 4666 
L 1191 4666 
L 1191 1831 
Q 1191 1081 1462 751 
Q 1734 422 2344 422 
Q 2950 422 3222 751 
Q 3494 1081 3494 1831 
L 3494 4666 
L 4128 4666 
L 4128 1753 
Q 4128 841 3676 375 
Q 3225 -91 2344 -91 
Q 1459 -91 1007 375 
Q 556 841 556 1753 
L 556 4666 
z
" transform="scale(0.015625)"/>
        <path id="DejaVuSans-72" d="M 2631 2963 
Q 2534 3019 2420 3045 
Q 2306 3072 2169 3072 
Q 1681 3072 1420 2755 
Q 1159 2438 1159 1844 
L 1159 0 
L 581 0 
L 581 3500 
L 1159 3500 
L 1159 2956 
Q 1341 3275 1631 3429 
Q 1922 3584 2338 3584 
Q 2397 3584 2469 3576 
Q 2541 3569 2628 3553 
L 2631 2963 
z
" transform="scale(0.015625)"/>
        <path id="DejaVuSans-20" transform="scale(0.015625)"/>
        <path id="DejaVuSans-4e" d="M 628 4666 
L 1478 4666 
L 3547 763 
L 3547 4666 
L 4159 4666 
L 4159 0 
L 3309 0 
L 1241 3903 
L 1241 0 
L 628 0 
L 628 4666 
z
" transform="scale(0.015625)"/>
        <path id="DejaVuSans-74" d="M 1172 4494 
L 1172 3500 
L 2356 3500 
L 2356 3053 
L 1172 3053 
L 1172 1153 
Q 1172 725 1289 603 
Q 1406 481 1766 481 
L 2356 481 
L 2356 0 
L 1766 0 
Q 1100 0 847 248 
Q 594 497 594 1153 
L 594 3053 
L 172 3053 
L 172 3500 
L 594 3500 
L 594 4494 
L 1172 4494 
z
" transform="scale(0.015625)"/>
        <path id="DejaVuSans-6f" d="M 1959 3097 
Q 1497 3097 1228 2736 
Q 959 2375 959 1747 
Q 959 1119 1226 758 
Q 1494 397 1959 397 
Q 2419 397 2687 759 
Q 2956 1122 2956 1747 
Q 2956 2369 2687 2733 
Q 2419 3097 1959 3097 
z
M 1959 3584 
Q 2709 3584 3137 3096 
Q 3566 2609 3566 1747 
Q 3566 888 3137 398 
Q 2709 -91 1959 -91 
Q 1206 -91 779 398 
Q 353 888 353 1747 
Q 353 2609 779 3096 
Q 1206 3584 1959 3584 
z
" transform="scale(0.015625)"/>
        <path id="DejaVuSans-2c" d="M 750 794 
L 1409 794 
L 1409 256 
L 897 -744 
L 494 -744 
L 750 256 
L 750 794 
z
" transform="scale(0.015625)"/>
       </defs>
       <use xlink:href="#DejaVuSans-55"/>
       <use xlink:href="#DejaVuSans-72" transform="translate(73.193359 0)"/>
       <use xlink:href="#DejaVuSans-65" transform="translate(112.056641 0)"/>
       <use xlink:href="#DejaVuSans-61" transform="translate(173.580078 0)"/>
       <use xlink:href="#DejaVuSans-20" transform="translate(234.859375 0)"/>
       <use xlink:href="#DejaVuSans-4e" transform="translate(266.646484 0)"/>
       <use xlink:href="#DejaVuSans-69" transform="translate(341.451172 0)"/>
       <use xlink:href="#DejaVuSans-74" transform="translate(369.234375 0)"/>
       <use xlink:href="#DejaVuSans-72" transform="translate(408.443359 0)"/>
       <use xlink:href="#DejaVuSans-6f" transform="translate(447.306641 0)"/>
       <use xlink:href="#DejaVuSans-67" transform="translate(508.488281 0)"/>
       <use xlink:href="#DejaVuSans-65" transform="translate(571.964844 0)"/>
       <use xlink:href="#DejaVuSans-6e" transform="translate(633.488281 0)"/>
       <use xlink:href="#DejaVuSans-2c" transform="translate(696.867188 0)"/>
       <use xlink:href="#DejaVuSans-20" transform="translate(728.654297 0)"/>
       <use xlink:href="#DejaVuSans-55" transform="translate(760.441406 0)"/>
       <use xlink:href="#DejaVuSans-72" transform="translate(833.634766 0)"/>
       <use xlink:href="#DejaVuSans-69" transform="translate(874.748047 0)"/>
       <use xlink:href="#DejaVuSans-6e" transform="translate(902.53125 0)"/>
       <use xlink:href="#DejaVuSans-65" transform="translate(965.910156 0)"/>
      </g>
     </g>
    </g>
    <g id="xtick_3">
     <g id="line2d_3">
      <path d="M 255.752031 273.424937 
L 458.634531 273.424937 
" clip-path="url(#pa119af980d)" style="fill: none; stroke: #b0b0b0; stroke-width: 0.8; stroke-linecap: square"/>
     </g>
     <g id="text_3">
      <!-- Free Calcium -->
      <g transform="translate(440.314219 276.184312) scale(0.1 -0.1)">
       <defs>
        <path id="DejaVuSans-46" d="M 628 4666 
L 3309 4666 
L 3309 4134 
L 1259 4134 
L 1259 2759 
L 3109 2759 
L 3109 2228 
L 1259 2228 
L 1259 0 
L 628 0 
L 628 4666 
z
" transform="scale(0.015625)"/>
        <path id="DejaVuSans-43" d="M 4122 4306 
L 4122 3641 
Q 3803 3938 3442 4084 
Q 3081 4231 2675 4231 
Q 1875 4231 1450 3742 
Q 1025 3253 1025 2328 
Q 1025 1406 1450 917 
Q 1875 428 2675 428 
Q 3081 428 3442 575 
Q 3803 722 4122 1019 
L 4122 359 
Q 3791 134 3420 21 
Q 3050 -91 2638 -91 
Q 1578 -91 968 557 
Q 359 1206 359 2328 
Q 359 3453 968 4101 
Q 1578 4750 2638 4750 
Q 3056 4750 3426 4639 
Q 3797 4528 4122 4306 
z
" transform="scale(0.015625)"/>
        <path id="DejaVuSans-6c" d="M 603 4863 
L 1178 4863 
L 1178 0 
L 603 0 
L 603 4863 
z
" transform="scale(0.015625)"/>
        <path id="DejaVuSans-63" d="M 3122 3366 
L 3122 2828 
Q 2878 2963 2633 3030 
Q 2388 3097 2138 3097 
Q 1578 3097 1268 2742 
Q 959 2388 959 1747 
Q 959 1106 1268 751 
Q 1578 397 2138 397 
Q 2388 397 2633 464 
Q 2878 531 3122 666 
L 3122 134 
Q 2881 22 2623 -34 
Q 2366 -91 2075 -91 
Q 1284 -91 818 406 
Q 353 903 353 1747 
Q 353 2603 823 3093 
Q 1294 3584 2113 3584 
Q 2378 3584 2631 3529 
Q 2884 3475 3122 3366 
z
" transform="scale(0.015625)"/>
       </defs>
       <use xlink:href="#DejaVuSans-46"/>
       <use xlink:href="#DejaVuSans-72" transform="translate(50.269531 0)"/>
       <use xlink:href="#DejaVuSans-65" transform="translate(89.132812 0)"/>
       <use xlink:href="#DejaVuSans-65" transform="translate(150.65625 0)"/>
       <use xlink:href="#DejaVuSans-20" transform="translate(212.179688 0)"/>
       <use xlink:href="#DejaVuSans-43" transform="translate(243.966797 0)"/>
       <use xlink:href="#DejaVuSans-61" transform="translate(313.791016 0)"/>
       <use xlink:href="#DejaVuSans-6c" transform="translate(375.070312 0)"/>
       <use xlink:href="#DejaVuSans-63" transform="translate(402.853516 0)"/>
       <use xlink:href="#DejaVuSans-69" transform="translate(457.833984 0)"/>
       <use xlink:href="#DejaVuSans-75" transform="translate(485.617188 0)"/>
       <use xlink:href="#DejaVuSans-6d" transform="translate(548.996094 0)"/>
      </g>
     </g>
    </g>
    <g id="xtick_4">
     <g id="line2d_4">
      <path d="M 255.752031 273.424937 
L 399.211623 416.884529 
" clip-path="url(#pa119af980d)" style="fill: none; stroke: #b0b0b0; stroke-width: 0.8; stroke-linecap: square"/>
     </g>
     <g id="text_4">
      <!-- Urea Nitrogen -->
      <g transform="translate(374.267368 429.543399) scale(0.1 -0.1)">
       <use xlink:href="#DejaVuSans-55"/>
       <use xlink:href="#DejaVuSans-72" transform="translate(73.193359 0)"/>
       <use xlink:href="#DejaVuSans-65" transform="translate(112.056641 0)"/>
       <use xlink:href="#DejaVuSans-61" transform="translate(173.580078 0)"/>
       <use xlink:href="#DejaVuSans-20" transform="translate(234.859375 0)"/>
       <use xlink:href="#DejaVuSans-4e" transform="translate(266.646484 0)"/>
       <use xlink:href="#DejaVuSans-69" transform="translate(341.451172 0)"/>
       <use xlink:href="#DejaVuSans-74" transform="translate(369.234375 0)"/>
       <use xlink:href="#DejaVuSans-72" transform="translate(408.443359 0)"/>
       <use xlink:href="#DejaVuSans-6f" transform="translate(447.306641 0)"/>
       <use xlink:href="#DejaVuSans-67" transform="translate(508.488281 0)"/>
       <use xlink:href="#DejaVuSans-65" transform="translate(571.964844 0)"/>
       <use xlink:href="#DejaVuSans-6e" transform="translate(633.488281 0)"/>
      </g>
     </g>
    </g>
    <g id="xtick_5">
     <g id="line2d_5">
      <path d="M 255.752031 273.424937 
L 255.752031 476.307437 
" clip-path="url(#pa119af980d)" style="fill: none; stroke: #b0b0b0; stroke-width: 0.8; stroke-linecap: square"/>
     </g>
     <g id="text_5">
      <!-- Glucose -->
      <g transform="translate(235.830156 493.066812) scale(0.1 -0.1)">
       <defs>
        <path id="DejaVuSans-47" d="M 3809 666 
L 3809 1919 
L 2778 1919 
L 2778 2438 
L 4434 2438 
L 4434 434 
Q 4069 175 3628 42 
Q 3188 -91 2688 -91 
Q 1594 -91 976 548 
Q 359 1188 359 2328 
Q 359 3472 976 4111 
Q 1594 4750 2688 4750 
Q 3144 4750 3555 4637 
Q 3966 4525 4313 4306 
L 4313 3634 
Q 3963 3931 3569 4081 
Q 3175 4231 2741 4231 
Q 1884 4231 1454 3753 
Q 1025 3275 1025 2328 
Q 1025 1384 1454 906 
Q 1884 428 2741 428 
Q 3075 428 3337 486 
Q 3600 544 3809 666 
z
" transform="scale(0.015625)"/>
       </defs>
       <use xlink:href="#DejaVuSans-47"/>
       <use xlink:href="#DejaVuSans-6c" transform="translate(77.490234 0)"/>
       <use xlink:href="#DejaVuSans-75" transform="translate(105.273438 0)"/>
       <use xlink:href="#DejaVuSans-63" transform="translate(168.652344 0)"/>
       <use xlink:href="#DejaVuSans-6f" transform="translate(223.632812 0)"/>
       <use xlink:href="#DejaVuSans-73" transform="translate(284.814453 0)"/>
       <use xlink:href="#DejaVuSans-65" transform="translate(336.914062 0)"/>
      </g>
     </g>
    </g>
    <g id="xtick_6">
     <g id="line2d_6">
      <path d="M 255.752031 273.424937 
L 112.29244 416.884529 
" clip-path="url(#pa119af980d)" style="fill: none; stroke: #b0b0b0; stroke-width: 0.8; stroke-linecap: square"/>
     </g>
     <g id="text_6">
      <!-- pH -->
      <g transform="translate(95.45857 429.543399) scale(0.1 -0.1)">
       <defs>
        <path id="DejaVuSans-70" d="M 1159 525 
L 1159 -1331 
L 581 -1331 
L 581 3500 
L 1159 3500 
L 1159 2969 
Q 1341 3281 1617 3432 
Q 1894 3584 2278 3584 
Q 2916 3584 3314 3078 
Q 3713 2572 3713 1747 
Q 3713 922 3314 415 
Q 2916 -91 2278 -91 
Q 1894 -91 1617 61 
Q 1341 213 1159 525 
z
M 3116 1747 
Q 3116 2381 2855 2742 
Q 2594 3103 2138 3103 
Q 1681 3103 1420 2742 
Q 1159 2381 1159 1747 
Q 1159 1113 1420 752 
Q 1681 391 2138 391 
Q 2594 391 2855 752 
Q 3116 1113 3116 1747 
z
" transform="scale(0.015625)"/>
        <path id="DejaVuSans-48" d="M 628 4666 
L 1259 4666 
L 1259 2753 
L 3553 2753 
L 3553 4666 
L 4184 4666 
L 4184 0 
L 3553 0 
L 3553 2222 
L 1259 2222 
L 1259 0 
L 628 0 
L 628 4666 
z
" transform="scale(0.015625)"/>
       </defs>
       <use xlink:href="#DejaVuSans-70"/>
       <use xlink:href="#DejaVuSans-48" transform="translate(63.476562 0)"/>
      </g>
     </g>
    </g>
    <g id="xtick_7">
     <g id="line2d_7">
      <path d="M 255.752031 273.424937 
L 52.869531 273.424937 
" clip-path="url(#pa119af980d)" style="fill: none; stroke: #b0b0b0; stroke-width: 0.8; stroke-linecap: square"/>
     </g>
     <g id="text_7">
      <!-- Temperature -->
      <g transform="translate(7.2 276.184312) scale(0.1 -0.1)">
       <defs>
        <path id="DejaVuSans-54" d="M -19 4666 
L 3928 4666 
L 3928 4134 
L 2272 4134 
L 2272 0 
L 1638 0 
L 1638 4134 
L -19 4134 
L -19 4666 
z
" transform="scale(0.015625)"/>
       </defs>
       <use xlink:href="#DejaVuSans-54"/>
       <use xlink:href="#DejaVuSans-65" transform="translate(44.083984 0)"/>
       <use xlink:href="#DejaVuSans-6d" transform="translate(105.607422 0)"/>
       <use xlink:href="#DejaVuSans-70" transform="translate(203.019531 0)"/>
       <use xlink:href="#DejaVuSans-65" transform="translate(266.496094 0)"/>
       <use xlink:href="#DejaVuSans-72" transform="translate(328.019531 0)"/>
       <use xlink:href="#DejaVuSans-61" transform="translate(369.132812 0)"/>
       <use xlink:href="#DejaVuSans-74" transform="translate(430.412109 0)"/>
       <use xlink:href="#DejaVuSans-75" transform="translate(469.621094 0)"/>
       <use xlink:href="#DejaVuSans-72" transform="translate(533 0)"/>
       <use xlink:href="#DejaVuSans-65" transform="translate(571.863281 0)"/>
      </g>
     </g>
    </g>
    <g id="xtick_8">
     <g id="line2d_8">
      <path d="M 255.752031 273.424937 
L 112.29244 129.965346 
" clip-path="url(#pa119af980d)" style="fill: none; stroke: #b0b0b0; stroke-width: 0.8; stroke-linecap: square"/>
     </g>
     <g id="text_8">
      <!-- Bicarbonate -->
      <g transform="translate(72.201539 122.825226) scale(0.1 -0.1)">
       <defs>
        <path id="DejaVuSans-42" d="M 1259 2228 
L 1259 519 
L 2272 519 
Q 2781 519 3026 730 
Q 3272 941 3272 1375 
Q 3272 1813 3026 2020 
Q 2781 2228 2272 2228 
L 1259 2228 
z
M 1259 4147 
L 1259 2741 
L 2194 2741 
Q 2656 2741 2882 2914 
Q 3109 3088 3109 3444 
Q 3109 3797 2882 3972 
Q 2656 4147 2194 4147 
L 1259 4147 
z
M 628 4666 
L 2241 4666 
Q 2963 4666 3353 4366 
Q 3744 4066 3744 3513 
Q 3744 3084 3544 2831 
Q 3344 2578 2956 2516 
Q 3422 2416 3680 2098 
Q 3938 1781 3938 1306 
Q 3938 681 3513 340 
Q 3088 0 2303 0 
L 628 0 
L 628 4666 
z
" transform="scale(0.015625)"/>
        <path id="DejaVuSans-62" d="M 3116 1747 
Q 3116 2381 2855 2742 
Q 2594 3103 2138 3103 
Q 1681 3103 1420 2742 
Q 1159 2381 1159 1747 
Q 1159 1113 1420 752 
Q 1681 391 2138 391 
Q 2594 391 2855 752 
Q 3116 1113 3116 1747 
z
M 1159 2969 
Q 1341 3281 1617 3432 
Q 1894 3584 2278 3584 
Q 2916 3584 3314 3078 
Q 3713 2572 3713 1747 
Q 3713 922 3314 415 
Q 2916 -91 2278 -91 
Q 1894 -91 1617 61 
Q 1341 213 1159 525 
L 1159 0 
L 581 0 
L 581 4863 
L 1159 4863 
L 1159 2969 
z
" transform="scale(0.015625)"/>
       </defs>
       <use xlink:href="#DejaVuSans-42"/>
       <use xlink:href="#DejaVuSans-69" transform="translate(68.603516 0)"/>
       <use xlink:href="#DejaVuSans-63" transform="translate(96.386719 0)"/>
       <use xlink:href="#DejaVuSans-61" transform="translate(151.367188 0)"/>
       <use xlink:href="#DejaVuSans-72" transform="translate(212.646484 0)"/>
       <use xlink:href="#DejaVuSans-62" transform="translate(253.759766 0)"/>
       <use xlink:href="#DejaVuSans-6f" transform="translate(317.236328 0)"/>
       <use xlink:href="#DejaVuSans-6e" transform="translate(378.417969 0)"/>
       <use xlink:href="#DejaVuSans-61" transform="translate(441.796875 0)"/>
       <use xlink:href="#DejaVuSans-74" transform="translate(503.076172 0)"/>
       <use xlink:href="#DejaVuSans-65" transform="translate(542.285156 0)"/>
      </g>
     </g>
    </g>
   </g>
   <g id="matplotlib.axis_2">
    <g id="ytick_1">
     <g id="line2d_9">
      <path d="M 255.752031 246.343126 
C 259.308382 246.343126 262.830152 247.043649 266.115792 248.404606 
C 269.401432 249.765562 272.387044 251.760485 274.901764 254.275205 
C 277.416484 256.789925 279.411406 259.775537 280.772363 263.061177 
C 282.133319 266.346817 282.833843 269.868587 282.833843 273.424937 
C 282.833843 276.981288 282.133319 280.503058 280.772363 283.788698 
C 279.411406 287.074338 277.416484 290.05995 274.901764 292.57467 
C 272.387044 295.08939 269.401432 297.084313 266.115792 298.445269 
C 262.830152 299.806226 259.308382 300.506749 255.752031 300.506749 
C 252.19568 300.506749 248.67391 299.806226 245.388271 298.445269 
C 242.102631 297.084313 239.117018 295.08939 236.602298 292.57467 
C 234.087579 290.05995 232.092656 287.074338 230.7317 283.788698 
C 229.370743 280.503058 228.670219 276.981288 228.670219 273.424937 
C 228.670219 269.868587 229.370743 266.346817 230.7317 263.061177 
C 232.092656 259.775537 234.087579 256.789925 236.602298 254.275205 
C 239.117018 251.760485 242.102631 249.765562 245.388271 248.404606 
C 248.67391 247.043649 252.19568 246.343126 255.752031 246.343126 
" clip-path="url(#pa119af980d)" style="fill: none; stroke: #b0b0b0; stroke-width: 0.8; stroke-linecap: square"/>
     </g>
     <g id="text_9">
      <!-- 0.005 -->
      <g transform="translate(266.115792 246.324918) scale(0.1 -0.1)">
       <defs>
        <path id="DejaVuSans-30" d="M 2034 4250 
Q 1547 4250 1301 3770 
Q 1056 3291 1056 2328 
Q 1056 1369 1301 889 
Q 1547 409 2034 409 
Q 2525 409 2770 889 
Q 3016 1369 3016 2328 
Q 3016 3291 2770 3770 
Q 2525 4250 2034 4250 
z
M 2034 4750 
Q 2819 4750 3233 4129 
Q 3647 3509 3647 2328 
Q 3647 1150 3233 529 
Q 2819 -91 2034 -91 
Q 1250 -91 836 529 
Q 422 1150 422 2328 
Q 422 3509 836 4129 
Q 1250 4750 2034 4750 
z
" transform="scale(0.015625)"/>
        <path id="DejaVuSans-2e" d="M 684 794 
L 1344 794 
L 1344 0 
L 684 0 
L 684 794 
z
" transform="scale(0.015625)"/>
        <path id="DejaVuSans-35" d="M 691 4666 
L 3169 4666 
L 3169 4134 
L 1269 4134 
L 1269 2991 
Q 1406 3038 1543 3061 
Q 1681 3084 1819 3084 
Q 2600 3084 3056 2656 
Q 3513 2228 3513 1497 
Q 3513 744 3044 326 
Q 2575 -91 1722 -91 
Q 1428 -91 1123 -41 
Q 819 9 494 109 
L 494 744 
Q 775 591 1075 516 
Q 1375 441 1709 441 
Q 2250 441 2565 725 
Q 2881 1009 2881 1497 
Q 2881 1984 2565 2268 
Q 2250 2553 1709 2553 
Q 1456 2553 1204 2497 
Q 953 2441 691 2322 
L 691 4666 
z
" transform="scale(0.015625)"/>
       </defs>
       <use xlink:href="#DejaVuSans-30"/>
       <use xlink:href="#DejaVuSans-2e" transform="translate(63.623047 0)"/>
       <use xlink:href="#DejaVuSans-30" transform="translate(95.410156 0)"/>
       <use xlink:href="#DejaVuSans-30" transform="translate(159.033203 0)"/>
       <use xlink:href="#DejaVuSans-35" transform="translate(222.65625 0)"/>
      </g>
     </g>
    </g>
    <g id="ytick_2">
     <g id="line2d_10">
      <path d="M 255.752031 219.261314 
C 262.864733 219.261314 269.908273 220.662361 276.479553 223.384274 
C 283.050832 226.106187 289.022057 230.096032 294.051497 235.125472 
C 299.080936 240.154912 303.070781 246.126136 305.792694 252.697416 
C 308.514608 259.268696 309.915655 266.312236 309.915655 273.424937 
C 309.915655 280.537639 308.514608 287.581179 305.792694 294.152459 
C 303.070781 300.723739 299.080936 306.694963 294.051497 311.724403 
C 289.022057 316.753843 283.050832 320.743688 276.479553 323.465601 
C 269.908273 326.187514 262.864733 327.588561 255.752031 327.588561 
C 248.639329 327.588561 241.59579 326.187514 235.02451 323.465601 
C 228.45323 320.743688 222.482005 316.753843 217.452566 311.724403 
C 212.423126 306.694963 208.433281 300.723739 205.711368 294.152459 
C 202.989455 287.581179 201.588408 280.537639 201.588408 273.424937 
C 201.588408 266.312236 202.989455 259.268696 205.711368 252.697416 
C 208.433281 246.126136 212.423126 240.154912 217.452566 235.125472 
C 222.482005 230.096032 228.45323 226.106187 235.02451 223.384274 
C 241.59579 220.662361 248.639329 219.261314 255.752031 219.261314 
" clip-path="url(#pa119af980d)" style="fill: none; stroke: #b0b0b0; stroke-width: 0.8; stroke-linecap: square"/>
     </g>
     <g id="text_10">
      <!-- 0.010 -->
      <g transform="translate(276.479553 221.304587) scale(0.1 -0.1)">
       <defs>
        <path id="DejaVuSans-31" d="M 794 531 
L 1825 531 
L 1825 4091 
L 703 3866 
L 703 4441 
L 1819 4666 
L 2450 4666 
L 2450 531 
L 3481 531 
L 3481 0 
L 794 0 
L 794 531 
z
" transform="scale(0.015625)"/>
       </defs>
       <use xlink:href="#DejaVuSans-30"/>
       <use xlink:href="#DejaVuSans-2e" transform="translate(63.623047 0)"/>
       <use xlink:href="#DejaVuSans-30" transform="translate(95.410156 0)"/>
       <use xlink:href="#DejaVuSans-31" transform="translate(159.033203 0)"/>
       <use xlink:href="#DejaVuSans-30" transform="translate(222.65625 0)"/>
      </g>
     </g>
    </g>
    <g id="ytick_3">
     <g id="line2d_11">
      <path d="M 255.752031 192.179502 
C 266.421084 192.179502 276.986394 194.281073 286.843313 198.363943 
C 296.700233 202.446812 305.65707 208.43158 313.20123 215.975739 
C 320.745389 223.519899 326.730156 232.476736 330.813026 242.333655 
C 334.895896 252.190575 336.997467 262.755885 336.997467 273.424937 
C 336.997467 284.09399 334.895896 294.6593 330.813026 304.51622 
C 326.730156 314.373139 320.745389 323.329976 313.20123 330.874136 
C 305.65707 338.418295 296.700233 344.403063 286.843313 348.485932 
C 276.986394 352.568802 266.421084 354.670373 255.752031 354.670373 
C 245.082978 354.670373 234.517669 352.568802 224.660749 348.485932 
C 214.80383 344.403063 205.846993 338.418295 198.302833 330.874136 
C 190.758673 323.329976 184.773906 314.373139 180.691036 304.51622 
C 176.608167 294.6593 174.506596 284.09399 174.506596 273.424937 
C 174.506596 262.755885 176.608167 252.190575 180.691036 242.333655 
C 184.773906 232.476736 190.758673 223.519899 198.302833 215.975739 
C 205.846993 208.43158 214.80383 202.446812 224.660749 198.363943 
C 234.517669 194.281073 245.082978 192.179502 255.752031 192.179502 
" clip-path="url(#pa119af980d)" style="fill: none; stroke: #b0b0b0; stroke-width: 0.8; stroke-linecap: square"/>
     </g>
     <g id="text_11">
      <!-- 0.015 -->
      <g transform="translate(286.843313 196.284255) scale(0.1 -0.1)">
       <use xlink:href="#DejaVuSans-30"/>
       <use xlink:href="#DejaVuSans-2e" transform="translate(63.623047 0)"/>
       <use xlink:href="#DejaVuSans-30" transform="translate(95.410156 0)"/>
       <use xlink:href="#DejaVuSans-31" transform="translate(159.033203 0)"/>
       <use xlink:href="#DejaVuSans-35" transform="translate(222.65625 0)"/>
      </g>
     </g>
    </g>
    <g id="ytick_4">
     <g id="line2d_12">
      <path d="M 255.752031 165.09769 
C 269.977435 165.09769 284.064515 167.899785 297.207074 173.343611 
C 310.349633 178.787437 322.292083 186.767127 332.350962 196.826006 
C 342.409842 206.884886 350.389531 218.827335 355.833358 231.969895 
C 361.277184 245.112454 364.079278 259.199534 364.079278 273.424937 
C 364.079278 287.650341 361.277184 301.737421 355.833358 314.87998 
C 350.389531 328.02254 342.409842 339.964989 332.350962 350.023869 
C 322.292083 360.082748 310.349633 368.062438 297.207074 373.506264 
C 284.064515 378.95009 269.977435 381.752185 255.752031 381.752185 
C 241.526627 381.752185 227.439548 378.95009 214.296989 373.506264 
C 201.154429 368.062438 189.21198 360.082748 179.1531 350.023869 
C 169.094221 339.964989 161.114531 328.02254 155.670705 314.87998 
C 150.226878 301.737421 147.424784 287.650341 147.424784 273.424937 
C 147.424784 259.199534 150.226878 245.112454 155.670705 231.969895 
C 161.114531 218.827335 169.094221 206.884886 179.1531 196.826006 
C 189.21198 186.767127 201.154429 178.787437 214.296989 173.343611 
C 227.439548 167.899785 241.526627 165.09769 255.752031 165.09769 
" clip-path="url(#pa119af980d)" style="fill: none; stroke: #b0b0b0; stroke-width: 0.8; stroke-linecap: square"/>
     </g>
     <g id="text_12">
      <!-- 0.020 -->
      <g transform="translate(297.207074 171.263924) scale(0.1 -0.1)">
       <defs>
        <path id="DejaVuSans-32" d="M 1228 531 
L 3431 531 
L 3431 0 
L 469 0 
L 469 531 
Q 828 903 1448 1529 
Q 2069 2156 2228 2338 
Q 2531 2678 2651 2914 
Q 2772 3150 2772 3378 
Q 2772 3750 2511 3984 
Q 2250 4219 1831 4219 
Q 1534 4219 1204 4116 
Q 875 4013 500 3803 
L 500 4441 
Q 881 4594 1212 4672 
Q 1544 4750 1819 4750 
Q 2544 4750 2975 4387 
Q 3406 4025 3406 3419 
Q 3406 3131 3298 2873 
Q 3191 2616 2906 2266 
Q 2828 2175 2409 1742 
Q 1991 1309 1228 531 
z
" transform="scale(0.015625)"/>
       </defs>
       <use xlink:href="#DejaVuSans-30"/>
       <use xlink:href="#DejaVuSans-2e" transform="translate(63.623047 0)"/>
       <use xlink:href="#DejaVuSans-30" transform="translate(95.410156 0)"/>
       <use xlink:href="#DejaVuSans-32" transform="translate(159.033203 0)"/>
       <use xlink:href="#DejaVuSans-30" transform="translate(222.65625 0)"/>
      </g>
     </g>
    </g>
    <g id="ytick_5">
     <g id="line2d_13">
      <path d="M 255.752031 138.015879 
C 273.533786 138.015879 291.142635 141.518497 307.570835 148.323279 
C 323.999034 155.128062 338.927096 165.102674 351.500695 177.676274 
C 364.074294 190.249873 374.048906 205.177935 380.853689 221.606134 
C 387.658472 238.034333 391.16109 255.643183 391.16109 273.424937 
C 391.16109 291.206692 387.658472 308.815542 380.853689 325.243741 
C 374.048906 341.67194 364.074294 356.600002 351.500695 369.173601 
C 338.927096 381.747201 323.999034 391.721813 307.570835 398.526596 
C 291.142635 405.331378 273.533786 408.833996 255.752031 408.833996 
C 237.970277 408.833996 220.361427 405.331378 203.933228 398.526596 
C 187.505029 391.721813 172.576967 381.747201 160.003367 369.173601 
C 147.429768 356.600002 137.455156 341.67194 130.650373 325.243741 
C 123.84559 308.815542 120.342972 291.206692 120.342972 273.424937 
C 120.342972 255.643183 123.84559 238.034333 130.650373 221.606134 
C 137.455156 205.177935 147.429768 190.249873 160.003367 177.676274 
C 172.576967 165.102674 187.505029 155.128062 203.933228 148.323279 
C 220.361427 141.518497 237.970277 138.015879 255.752031 138.015879 
" clip-path="url(#pa119af980d)" style="fill: none; stroke: #b0b0b0; stroke-width: 0.8; stroke-linecap: square"/>
     </g>
     <g id="text_13">
      <!-- 0.025 -->
      <g transform="translate(307.570835 146.243592) scale(0.1 -0.1)">
       <use xlink:href="#DejaVuSans-30"/>
       <use xlink:href="#DejaVuSans-2e" transform="translate(63.623047 0)"/>
       <use xlink:href="#DejaVuSans-30" transform="translate(95.410156 0)"/>
       <use xlink:href="#DejaVuSans-32" transform="translate(159.033203 0)"/>
       <use xlink:href="#DejaVuSans-35" transform="translate(222.65625 0)"/>
      </g>
     </g>
    </g>
    <g id="ytick_6">
     <g id="line2d_14">
      <path d="M 255.752031 110.934067 
C 277.090137 110.934067 298.220756 115.137208 317.934595 123.302948 
C 337.648434 131.468687 355.562109 143.438222 370.650428 158.526541 
C 385.738747 173.61486 397.708281 191.528534 405.874021 211.242373 
C 414.03976 230.956212 418.242902 252.086832 418.242902 273.424937 
C 418.242902 294.763043 414.03976 315.893663 405.874021 335.607502 
C 397.708281 355.321341 385.738747 373.235015 370.650428 388.323334 
C 355.562109 403.411653 337.648434 415.381188 317.934595 423.546927 
C 298.220756 431.712667 277.090137 435.915808 255.752031 435.915808 
C 234.413926 435.915808 213.283306 431.712667 193.569467 423.546927 
C 173.855628 415.381188 155.941954 403.411653 140.853635 388.323334 
C 125.765316 373.235015 113.795781 355.321341 105.630042 335.607502 
C 97.464302 315.893663 93.261161 294.763043 93.261161 273.424937 
C 93.261161 252.086832 97.464302 230.956212 105.630042 211.242373 
C 113.795781 191.528534 125.765316 173.61486 140.853635 158.526541 
C 155.941954 143.438222 173.855628 131.468687 193.569467 123.302948 
C 213.283306 115.137208 234.413926 110.934067 255.752031 110.934067 
" clip-path="url(#pa119af980d)" style="fill: none; stroke: #b0b0b0; stroke-width: 0.8; stroke-linecap: square"/>
     </g>
     <g id="text_14">
      <!-- 0.030 -->
      <g transform="translate(317.934595 121.22326) scale(0.1 -0.1)">
       <defs>
        <path id="DejaVuSans-33" d="M 2597 2516 
Q 3050 2419 3304 2112 
Q 3559 1806 3559 1356 
Q 3559 666 3084 287 
Q 2609 -91 1734 -91 
Q 1441 -91 1130 -33 
Q 819 25 488 141 
L 488 750 
Q 750 597 1062 519 
Q 1375 441 1716 441 
Q 2309 441 2620 675 
Q 2931 909 2931 1356 
Q 2931 1769 2642 2001 
Q 2353 2234 1838 2234 
L 1294 2234 
L 1294 2753 
L 1863 2753 
Q 2328 2753 2575 2939 
Q 2822 3125 2822 3475 
Q 2822 3834 2567 4026 
Q 2313 4219 1838 4219 
Q 1578 4219 1281 4162 
Q 984 4106 628 3988 
L 628 4550 
Q 988 4650 1302 4700 
Q 1616 4750 1894 4750 
Q 2613 4750 3031 4423 
Q 3450 4097 3450 3541 
Q 3450 3153 3228 2886 
Q 3006 2619 2597 2516 
z
" transform="scale(0.015625)"/>
       </defs>
       <use xlink:href="#DejaVuSans-30"/>
       <use xlink:href="#DejaVuSans-2e" transform="translate(63.623047 0)"/>
       <use xlink:href="#DejaVuSans-30" transform="translate(95.410156 0)"/>
       <use xlink:href="#DejaVuSans-33" transform="translate(159.033203 0)"/>
       <use xlink:href="#DejaVuSans-30" transform="translate(222.65625 0)"/>
      </g>
     </g>
    </g>
    <g id="ytick_7">
     <g id="line2d_15">
      <path d="M 255.752031 83.852255 
C 280.646488 83.852255 305.298877 88.75592 328.298356 98.282616 
C 351.297835 107.809312 372.197121 121.773769 389.800161 139.376808 
C 407.4032 156.979847 421.367656 177.879134 430.894353 200.878613 
C 440.421049 223.878092 445.324714 248.530481 445.324714 273.424937 
C 445.324714 298.319394 440.421049 322.971783 430.894353 345.971262 
C 421.367656 368.970741 407.4032 389.870028 389.800161 407.473067 
C 372.197121 425.076106 351.297835 439.040563 328.298356 448.567259 
C 305.298877 458.093955 280.646488 462.99762 255.752031 462.99762 
C 230.857575 462.99762 206.205185 458.093955 183.205706 448.567259 
C 160.206228 439.040563 139.306941 425.076106 121.703902 407.473067 
C 104.100863 389.870028 90.136406 368.970741 80.60971 345.971262 
C 71.083014 322.971783 66.179349 298.319394 66.179349 273.424937 
C 66.179349 248.530481 71.083014 223.878092 80.60971 200.878613 
C 90.136406 177.879134 104.100863 156.979847 121.703902 139.376808 
C 139.306941 121.773769 160.206228 107.809312 183.205706 98.282616 
C 206.205185 88.75592 230.857575 83.852255 255.752031 83.852255 
" clip-path="url(#pa119af980d)" style="fill: none; stroke: #b0b0b0; stroke-width: 0.8; stroke-linecap: square"/>
     </g>
     <g id="text_15">
      <!-- 0.035 -->
      <g transform="translate(328.298356 96.202929) scale(0.1 -0.1)">
       <use xlink:href="#DejaVuSans-30"/>
       <use xlink:href="#DejaVuSans-2e" transform="translate(63.623047 0)"/>
       <use xlink:href="#DejaVuSans-30" transform="translate(95.410156 0)"/>
       <use xlink:href="#DejaVuSans-33" transform="translate(159.033203 0)"/>
       <use xlink:href="#DejaVuSans-35" transform="translate(222.65625 0)"/>
      </g>
     </g>
    </g>
   </g>
   <g id="line2d_16">
    <path d="M 255.752031 79.278894 
L 388.999349 140.17762 
L 395.115359 273.424937 
L 343.811484 361.48439 
L 255.752031 395.189742 
L 180.38408 348.792889 
L 216.717469 273.424937 
L 228.292356 245.965262 
L 255.752031 79.278894 
" clip-path="url(#pa119af980d)" style="fill: none; stroke: #000000; stroke-width: 2; stroke-linecap: square"/>
   </g>
   <g id="line2d_17">
    <path d="M 255.752031 254.008015 
L 257.58848 254.095056 
L 259.408464 254.355397 
L 261.195667 254.786705 
L 262.934065 255.385113 
L 264.608073 256.145256 
L 266.202683 257.060319 
L 267.703598 258.122097 
L 269.097363 259.321072 
L 270.37148 260.646495 
L 271.514528 262.086482 
L 272.516258 263.628123 
L 273.36769 265.257596 
L 274.061189 266.960294 
L 274.590539 268.72095 
L 274.950994 270.523779 
L 275.139321 272.352618 
L 275.153833 274.191071 
L 274.9944 276.022655 
L 274.66245 277.83095 
L 274.16096 279.599743 
L 273.494426 281.313176 
L 272.668824 282.955887 
L 271.691555 284.51315 
L 270.571382 285.971002 
L 269.318347 287.316373 
L 267.943683 288.537201 
L 266.459717 289.622541 
L 264.879751 290.562662 
L 263.217951 291.349137 
L 261.489216 291.974913 
L 259.709045 292.43438 
L 257.893397 292.72342 
L 256.058551 292.83944 
L 254.220957 292.781401 
L 252.39709 292.549823 
L 250.603301 292.146782 
L 248.855673 291.575891 
L 247.169874 290.84227 
L 245.561017 289.952494 
L 244.043528 288.914541 
L 242.63101 287.737718 
L 241.336128 286.432574 
L 240.17049 285.010811 
L 239.144548 283.485176 
L 238.2675 281.869346 
L 237.547207 280.177808 
L 236.990129 278.425728 
L 236.60126 276.628814 
L 236.384085 274.803176 
L 236.340553 272.965181 
L 236.471052 271.131308 
L 236.774415 269.317998 
L 237.247919 267.541509 
L 237.887322 265.817768 
L 238.686889 264.162228 
L 239.639452 262.589732 
L 240.736472 261.114379 
L 241.968113 259.749395 
L 243.323333 258.507018 
L 244.789981 257.398387 
L 246.354909 256.433441 
L 248.004086 255.620831 
L 249.722727 254.967842 
L 251.495423 254.48033 
L 253.306281 254.162664 
L 255.139067 254.017693 
L 255.752031 254.008015 
L 255.752031 254.008015 
" clip-path="url(#pa119af980d)" style="fill: none; stroke-dasharray: 5.55,2.4; stroke-dashoffset: 0; stroke: #808080; stroke-width: 1.5"/>
   </g>
   <g id="patch_4">
    <path d="M 255.752031 70.542437 
C 229.109745 70.542437 202.726522 75.790387 178.11226 85.985948 
C 153.497997 96.18151 131.131381 111.126405 112.29244 129.965346 
C 93.453499 148.804287 78.508603 171.170903 68.313042 195.785166 
C 58.117481 220.399429 52.869531 246.782652 52.869531 273.424937 
C 52.869531 300.067223 58.117481 326.450446 68.313042 351.064709 
C 78.508603 375.678972 93.453499 398.045588 112.29244 416.884529 
C 131.131381 435.72347 153.497997 450.668365 178.11226 460.863927 
C 202.726522 471.059488 229.109745 476.307437 255.752031 476.307437 
C 282.394317 476.307437 308.77754 471.059488 333.391803 460.863927 
C 358.006065 450.668365 380.372682 435.72347 399.211623 416.884529 
C 418.050564 398.045588 432.995459 375.678972 443.191021 351.064709 
C 453.386582 326.450446 458.634531 300.067223 458.634531 273.424937 
C 458.634531 246.782652 453.386582 220.399429 443.191021 195.785166 
C 432.995459 171.170903 418.050564 148.804287 399.211623 129.965346 
C 380.372682 111.126405 358.006065 96.18151 333.391803 85.985948 
C 308.77754 75.790387 282.394317 70.542437 255.752031 70.542437 
" style="fill: none; stroke: #000000; stroke-width: 0.8; stroke-linejoin: miter; stroke-linecap: square"/>
   </g>
   <g id="text_16">
    <!-- Patient-level SHAP Radar Plot -->
    <g transform="translate(160.354375 17.077969) scale(0.13 -0.13)">
     <defs>
      <path id="DejaVuSans-50" d="M 1259 4147 
L 1259 2394 
L 2053 2394 
Q 2494 2394 2734 2622 
Q 2975 2850 2975 3272 
Q 2975 3691 2734 3919 
Q 2494 4147 2053 4147 
L 1259 4147 
z
M 628 4666 
L 2053 4666 
Q 2838 4666 3239 4311 
Q 3641 3956 3641 3272 
Q 3641 2581 3239 2228 
Q 2838 1875 2053 1875 
L 1259 1875 
L 1259 0 
L 628 0 
L 628 4666 
z
" transform="scale(0.015625)"/>
      <path id="DejaVuSans-2d" d="M 313 2009 
L 1997 2009 
L 1997 1497 
L 313 1497 
L 313 2009 
z
" transform="scale(0.015625)"/>
      <path id="DejaVuSans-76" d="M 191 3500 
L 800 3500 
L 1894 563 
L 2988 3500 
L 3597 3500 
L 2284 0 
L 1503 0 
L 191 3500 
z
" transform="scale(0.015625)"/>
      <path id="DejaVuSans-53" d="M 3425 4513 
L 3425 3897 
Q 3066 4069 2747 4153 
Q 2428 4238 2131 4238 
Q 1616 4238 1336 4038 
Q 1056 3838 1056 3469 
Q 1056 3159 1242 3001 
Q 1428 2844 1947 2747 
L 2328 2669 
Q 3034 2534 3370 2195 
Q 3706 1856 3706 1288 
Q 3706 609 3251 259 
Q 2797 -91 1919 -91 
Q 1588 -91 1214 -16 
Q 841 59 441 206 
L 441 856 
Q 825 641 1194 531 
Q 1563 422 1919 422 
Q 2459 422 2753 634 
Q 3047 847 3047 1241 
Q 3047 1584 2836 1778 
Q 2625 1972 2144 2069 
L 1759 2144 
Q 1053 2284 737 2584 
Q 422 2884 422 3419 
Q 422 4038 858 4394 
Q 1294 4750 2059 4750 
Q 2388 4750 2728 4690 
Q 3069 4631 3425 4513 
z
" transform="scale(0.015625)"/>
      <path id="DejaVuSans-41" d="M 2188 4044 
L 1331 1722 
L 3047 1722 
L 2188 4044 
z
M 1831 4666 
L 2547 4666 
L 4325 0 
L 3669 0 
L 3244 1197 
L 1141 1197 
L 716 0 
L 50 0 
L 1831 4666 
z
" transform="scale(0.015625)"/>
      <path id="DejaVuSans-52" d="M 2841 2188 
Q 3044 2119 3236 1894 
Q 3428 1669 3622 1275 
L 4263 0 
L 3584 0 
L 2988 1197 
Q 2756 1666 2539 1819 
Q 2322 1972 1947 1972 
L 1259 1972 
L 1259 0 
L 628 0 
L 628 4666 
L 2053 4666 
Q 2853 4666 3247 4331 
Q 3641 3997 3641 3322 
Q 3641 2881 3436 2590 
Q 3231 2300 2841 2188 
z
M 1259 4147 
L 1259 2491 
L 2053 2491 
Q 2509 2491 2742 2702 
Q 2975 2913 2975 3322 
Q 2975 3731 2742 3939 
Q 2509 4147 2053 4147 
L 1259 4147 
z
" transform="scale(0.015625)"/>
      <path id="DejaVuSans-64" d="M 2906 2969 
L 2906 4863 
L 3481 4863 
L 3481 0 
L 2906 0 
L 2906 525 
Q 2725 213 2448 61 
Q 2172 -91 1784 -91 
Q 1150 -91 751 415 
Q 353 922 353 1747 
Q 353 2572 751 3078 
Q 1150 3584 1784 3584 
Q 2172 3584 2448 3432 
Q 2725 3281 2906 2969 
z
M 947 1747 
Q 947 1113 1208 752 
Q 1469 391 1925 391 
Q 2381 391 2643 752 
Q 2906 1113 2906 1747 
Q 2906 2381 2643 2742 
Q 2381 3103 1925 3103 
Q 1469 3103 1208 2742 
Q 947 2381 947 1747 
z
" transform="scale(0.015625)"/>
     </defs>
     <use xlink:href="#DejaVuSans-50"/>
     <use xlink:href="#DejaVuSans-61" transform="translate(55.802734 0)"/>
     <use xlink:href="#DejaVuSans-74" transform="translate(117.082031 0)"/>
     <use xlink:href="#DejaVuSans-69" transform="translate(156.291016 0)"/>
     <use xlink:href="#DejaVuSans-65" transform="translate(184.074219 0)"/>
     <use xlink:href="#DejaVuSans-6e" transform="translate(245.597656 0)"/>
     <use xlink:href="#DejaVuSans-74" transform="translate(308.976562 0)"/>
     <use xlink:href="#DejaVuSans-2d" transform="translate(348.185547 0)"/>
     <use xlink:href="#DejaVuSans-6c" transform="translate(384.269531 0)"/>
     <use xlink:href="#DejaVuSans-65" transform="translate(412.052734 0)"/>
     <use xlink:href="#DejaVuSans-76" transform="translate(473.576172 0)"/>
     <use xlink:href="#DejaVuSans-65" transform="translate(532.755859 0)"/>
     <use xlink:href="#DejaVuSans-6c" transform="translate(594.279297 0)"/>
     <use xlink:href="#DejaVuSans-20" transform="translate(622.0625 0)"/>
     <use xlink:href="#DejaVuSans-53" transform="translate(653.849609 0)"/>
     <use xlink:href="#DejaVuSans-48" transform="translate(717.326172 0)"/>
     <use xlink:href="#DejaVuSans-41" transform="translate(792.521484 0)"/>
     <use xlink:href="#DejaVuSans-50" transform="translate(860.929688 0)"/>
     <use xlink:href="#DejaVuSans-20" transform="translate(921.232422 0)"/>
     <use xlink:href="#DejaVuSans-52" transform="translate(953.019531 0)"/>
     <use xlink:href="#DejaVuSans-61" transform="translate(1020.251953 0)"/>
     <use xlink:href="#DejaVuSans-64" transform="translate(1081.53125 0)"/>
     <use xlink:href="#DejaVuSans-61" transform="translate(1145.007812 0)"/>
     <use xlink:href="#DejaVuSans-72" transform="translate(1206.287109 0)"/>
     <use xlink:href="#DejaVuSans-20" transform="translate(1247.400391 0)"/>
     <use xlink:href="#DejaVuSans-50" transform="translate(1279.1875 0)"/>
     <use xlink:href="#DejaVuSans-6c" transform="translate(1339.490234 0)"/>
     <use xlink:href="#DejaVuSans-6f" transform="translate(1367.273438 0)"/>
     <use xlink:href="#DejaVuSans-74" transform="translate(1428.455078 0)"/>
    </g>
    <!-- (Inner: Decrease risk | Outer: Increase risk) -->
    <g transform="translate(115.426172 31.703375) scale(0.13 -0.13)">
     <defs>
      <path id="DejaVuSans-28" d="M 1984 4856 
Q 1566 4138 1362 3434 
Q 1159 2731 1159 2009 
Q 1159 1288 1364 580 
Q 1569 -128 1984 -844 
L 1484 -844 
Q 1016 -109 783 600 
Q 550 1309 550 2009 
Q 550 2706 781 3412 
Q 1013 4119 1484 4856 
L 1984 4856 
z
" transform="scale(0.015625)"/>
      <path id="DejaVuSans-49" d="M 628 4666 
L 1259 4666 
L 1259 0 
L 628 0 
L 628 4666 
z
" transform="scale(0.015625)"/>
      <path id="DejaVuSans-3a" d="M 750 794 
L 1409 794 
L 1409 0 
L 750 0 
L 750 794 
z
M 750 3309 
L 1409 3309 
L 1409 2516 
L 750 2516 
L 750 3309 
z
" transform="scale(0.015625)"/>
      <path id="DejaVuSans-44" d="M 1259 4147 
L 1259 519 
L 2022 519 
Q 2988 519 3436 956 
Q 3884 1394 3884 2338 
Q 3884 3275 3436 3711 
Q 2988 4147 2022 4147 
L 1259 4147 
z
M 628 4666 
L 1925 4666 
Q 3281 4666 3915 4102 
Q 4550 3538 4550 2338 
Q 4550 1131 3912 565 
Q 3275 0 1925 0 
L 628 0 
L 628 4666 
z
" transform="scale(0.015625)"/>
      <path id="DejaVuSans-6b" d="M 581 4863 
L 1159 4863 
L 1159 1991 
L 2875 3500 
L 3609 3500 
L 1753 1863 
L 3688 0 
L 2938 0 
L 1159 1709 
L 1159 0 
L 581 0 
L 581 4863 
z
" transform="scale(0.015625)"/>
      <path id="DejaVuSans-7c" d="M 1344 4891 
L 1344 -1509 
L 813 -1509 
L 813 4891 
L 1344 4891 
z
" transform="scale(0.015625)"/>
      <path id="DejaVuSans-4f" d="M 2522 4238 
Q 1834 4238 1429 3725 
Q 1025 3213 1025 2328 
Q 1025 1447 1429 934 
Q 1834 422 2522 422 
Q 3209 422 3611 934 
Q 4013 1447 4013 2328 
Q 4013 3213 3611 3725 
Q 3209 4238 2522 4238 
z
M 2522 4750 
Q 3503 4750 4090 4092 
Q 4678 3434 4678 2328 
Q 4678 1225 4090 567 
Q 3503 -91 2522 -91 
Q 1538 -91 948 565 
Q 359 1222 359 2328 
Q 359 3434 948 4092 
Q 1538 4750 2522 4750 
z
" transform="scale(0.015625)"/>
      <path id="DejaVuSans-29" d="M 513 4856 
L 1013 4856 
Q 1481 4119 1714 3412 
Q 1947 2706 1947 2009 
Q 1947 1309 1714 600 
Q 1481 -109 1013 -844 
L 513 -844 
Q 928 -128 1133 580 
Q 1338 1288 1338 2009 
Q 1338 2731 1133 3434 
Q 928 4138 513 4856 
z
" transform="scale(0.015625)"/>
     </defs>
     <use xlink:href="#DejaVuSans-28"/>
     <use xlink:href="#DejaVuSans-49" transform="translate(39.013672 0)"/>
     <use xlink:href="#DejaVuSans-6e" transform="translate(68.505859 0)"/>
     <use xlink:href="#DejaVuSans-6e" transform="translate(131.884766 0)"/>
     <use xlink:href="#DejaVuSans-65" transform="translate(195.263672 0)"/>
     <use xlink:href="#DejaVuSans-72" transform="translate(256.787109 0)"/>
     <use xlink:href="#DejaVuSans-3a" transform="translate(296.150391 0)"/>
     <use xlink:href="#DejaVuSans-20" transform="translate(329.841797 0)"/>
     <use xlink:href="#DejaVuSans-44" transform="translate(361.628906 0)"/>
     <use xlink:href="#DejaVuSans-65" transform="translate(438.630859 0)"/>
     <use xlink:href="#DejaVuSans-63" transform="translate(500.154297 0)"/>
     <use xlink:href="#DejaVuSans-72" transform="translate(555.134766 0)"/>
     <use xlink:href="#DejaVuSans-65" transform="translate(593.998047 0)"/>
     <use xlink:href="#DejaVuSans-61" transform="translate(655.521484 0)"/>
     <use xlink:href="#DejaVuSans-73" transform="translate(716.800781 0)"/>
     <use xlink:href="#DejaVuSans-65" transform="translate(768.900391 0)"/>
     <use xlink:href="#DejaVuSans-20" transform="translate(830.423828 0)"/>
     <use xlink:href="#DejaVuSans-72" transform="translate(862.210938 0)"/>
     <use xlink:href="#DejaVuSans-69" transform="translate(903.324219 0)"/>
     <use xlink:href="#DejaVuSans-73" transform="translate(931.107422 0)"/>
     <use xlink:href="#DejaVuSans-6b" transform="translate(983.207031 0)"/>
     <use xlink:href="#DejaVuSans-20" transform="translate(1041.117188 0)"/>
     <use xlink:href="#DejaVuSans-7c" transform="translate(1072.904297 0)"/>
     <use xlink:href="#DejaVuSans-20" transform="translate(1106.595703 0)"/>
     <use xlink:href="#DejaVuSans-4f" transform="translate(1138.382812 0)"/>
     <use xlink:href="#DejaVuSans-75" transform="translate(1217.09375 0)"/>
     <use xlink:href="#DejaVuSans-74" transform="translate(1280.472656 0)"/>
     <use xlink:href="#DejaVuSans-65" transform="translate(1319.681641 0)"/>
     <use xlink:href="#DejaVuSans-72" transform="translate(1381.205078 0)"/>
     <use xlink:href="#DejaVuSans-3a" transform="translate(1420.568359 0)"/>
     <use xlink:href="#DejaVuSans-20" transform="translate(1454.259766 0)"/>
     <use xlink:href="#DejaVuSans-49" transform="translate(1486.046875 0)"/>
     <use xlink:href="#DejaVuSans-6e" transform="translate(1515.539062 0)"/>
     <use xlink:href="#DejaVuSans-63" transform="translate(1578.917969 0)"/>
     <use xlink:href="#DejaVuSans-72" transform="translate(1633.898438 0)"/>
     <use xlink:href="#DejaVuSans-65" transform="translate(1672.761719 0)"/>
     <use xlink:href="#DejaVuSans-61" transform="translate(1734.285156 0)"/>
     <use xlink:href="#DejaVuSans-73" transform="translate(1795.564453 0)"/>
     <use xlink:href="#DejaVuSans-65" transform="translate(1847.664062 0)"/>
     <use xlink:href="#DejaVuSans-20" transform="translate(1909.1875 0)"/>
     <use xlink:href="#DejaVuSans-72" transform="translate(1940.974609 0)"/>
     <use xlink:href="#DejaVuSans-69" transform="translate(1982.087891 0)"/>
     <use xlink:href="#DejaVuSans-73" transform="translate(2009.871094 0)"/>
     <use xlink:href="#DejaVuSans-6b" transform="translate(2061.970703 0)"/>
     <use xlink:href="#DejaVuSans-29" transform="translate(2119.880859 0)"/>
    </g>
   </g>
   <g id="legend_1">
    <g id="patch_5">
     <path d="M 479.594531 52.644062 
L 553.075781 52.644062 
Q 555.075781 52.644062 555.075781 50.644062 
L 555.075781 36.965937 
Q 555.075781 34.965937 553.075781 34.965937 
L 479.594531 34.965937 
Q 477.594531 34.965937 477.594531 36.965937 
L 477.594531 50.644062 
Q 477.594531 52.644062 479.594531 52.644062 
z
" style="fill: #ffffff; opacity: 0.8; stroke: #cccccc; stroke-linejoin: miter"/>
    </g>
    <g id="line2d_18">
     <path d="M 481.594531 43.064375 
L 491.594531 43.064375 
L 501.594531 43.064375 
" style="fill: none; stroke-dasharray: 5.55,2.4; stroke-dashoffset: 0; stroke: #808080; stroke-width: 1.5"/>
    </g>
    <g id="text_17">
     <!-- SHAP=0 -->
     <g transform="translate(509.594531 46.564375) scale(0.1 -0.1)">
      <defs>
       <path id="DejaVuSans-3d" d="M 678 2906 
L 4684 2906 
L 4684 2381 
L 678 2381 
L 678 2906 
z
M 678 1631 
L 4684 1631 
L 4684 1100 
L 678 1100 
L 678 1631 
z
" transform="scale(0.015625)"/>
      </defs>
      <use xlink:href="#DejaVuSans-53"/>
      <use xlink:href="#DejaVuSans-48" transform="translate(63.476562 0)"/>
      <use xlink:href="#DejaVuSans-41" transform="translate(138.671875 0)"/>
      <use xlink:href="#DejaVuSans-50" transform="translate(207.080078 0)"/>
      <use xlink:href="#DejaVuSans-3d" transform="translate(267.382812 0)"/>
      <use xlink:href="#DejaVuSans-30" transform="translate(351.171875 0)"/>
     </g>
    </g>
   </g>
  </g>
 </g>
 <defs>
  <clipPath id="pa119af980d">
   <path d="M 458.634531 273.424937 
C 458.634531 246.782652 453.386582 220.399429 443.191021 195.785166 
C 432.995459 171.170903 418.050564 148.804287 399.211623 129.965346 
C 380.372682 111.126405 358.006065 96.18151 333.391803 85.985948 
C 308.77754 75.790387 282.394317 70.542437 255.752031 70.542437 
C 229.109745 70.542437 202.726522 75.790387 178.11226 85.985948 
C 153.497997 96.18151 131.131381 111.126405 112.29244 129.965346 
C 93.453499 148.804287 78.508603 171.170903 68.313042 195.785166 
C 58.117481 220.399429 52.869531 246.782652 52.869531 273.424937 
C 52.869531 300.067223 58.117481 326.450446 68.313042 351.064709 
C 78.508603 375.678972 93.453499 398.045588 112.29244 416.884529 
C 131.131381 435.72347 153.497997 450.668365 178.11226 460.863927 
C 202.726522 471.059488 229.109745 476.307437 255.752031 476.307437 
C 282.394317 476.307437 308.77754 471.059488 333.391803 460.863927 
C 358.006065 450.668365 380.372682 435.72347 399.211623 416.884529 
C 418.050564 398.045588 432.995459 375.678972 443.191021 351.064709 
C 453.386582 326.450446 458.634531 300.067223 458.634531 273.424937 
M 255.752031 273.424937 
C 255.752031 273.424937 255.752031 273.424937 255.752031 273.424937 
C 255.752031 273.424937 255.752031 273.424937 255.752031 273.424937 
C 255.752031 273.424937 255.752031 273.424937 255.752031 273.424937 
C 255.752031 273.424937 255.752031 273.424937 255.752031 273.424937 
C 255.752031 273.424937 255.752031 273.424937 255.752031 273.424937 
C 255.752031 273.424937 255.752031 273.424937 255.752031 273.424937 
C 255.752031 273.424937 255.752031 273.424937 255.752031 273.424937 
C 255.752031 273.424937 255.752031 273.424937 255.752031 273.424937 
C 255.752031 273.424937 255.752031 273.424937 255.752031 273.424937 
C 255.752031 273.424937 255.752031 273.424937 255.752031 273.424937 
C 255.752031 273.424937 255.752031 273.424937 255.752031 273.424937 
C 255.752031 273.424937 255.752031 273.424937 255.752031 273.424937 
C 255.752031 273.424937 255.752031 273.424937 255.752031 273.424937 
C 255.752031 273.424937 255.752031 273.424937 255.752031 273.424937 
C 255.752031 273.424937 255.752031 273.424937 255.752031 273.424937 
C 255.752031 273.424937 255.752031 273.424937 255.752031 273.424937 
z
"/>
  </clipPath>
 </defs>
</svg>
