<?xml version="1.0" encoding="utf-8" standalone="no"?>
<!DOCTYPE svg PUBLIC "-//W3C//DTD SVG 1.1//EN"
  "http://www.w3.org/Graphics/SVG/1.1/DTD/svg11.dtd">
<svg xmlns:xlink="http://www.w3.org/1999/xlink" width="559.382812pt" height="490.849pt" viewBox="0 0 559.382812 490.849" xmlns="http://www.w3.org/2000/svg" version="1.1">
 <metadata>
  <rdf:RDF xmlns:dc="http://purl.org/dc/elements/1.1/" xmlns:cc="http://creativecommons.org/ns#" xmlns:rdf="http://www.w3.org/1999/02/22-rdf-syntax-ns#">
   <cc:Work>
    <dc:type rdf:resource="http://purl.org/dc/dcmitype/StillImage"/>
    <dc:date>2026-03-13T14:58:43.104713</dc:date>
    <dc:format>image/svg+xml</dc:format>
    <dc:creator>
     <cc:Agent>
      <dc:title>Matplotlib v3.10.6, https://matplotlib.org/</dc:title>
     </cc:Agent>
    </dc:creator>
   </cc:Work>
  </rdf:RDF>
 </metadata>
 <defs>
  <style type="text/css">*{stroke-linejoin: round; stroke-linecap: butt}</style>
 </defs>
 <g id="figure_1">
  <g id="patch_1">
   <path d="M 0 490.849 
L 559.382812 490.849 
L 559.382812 0 
L 0 0 
z
" style="fill: #ffffff"/>
  </g>
  <g id="axes_1">
   <g id="patch_2">
    <path d="M 458.615937 267.676188 
C 458.615937 241.788821 453.516691 216.153176 443.610024 192.236367 
C 433.703358 168.319559 419.181932 146.586709 400.876799 128.281576 
C 382.571666 109.976443 360.838816 95.455017 336.922008 85.548351 
C 313.005199 75.641684 287.369554 70.542438 261.482188 70.542438 
C 235.594821 70.542438 209.959176 75.641684 186.042367 85.548351 
C 162.125559 95.455017 140.392709 109.976443 122.087576 128.281576 
C 103.782443 146.586709 89.261017 168.319559 79.354351 192.236367 
C 69.447684 216.153176 64.348438 241.788821 64.348438 267.676187 
C 64.348438 293.563554 69.447684 319.199199 79.354351 343.116008 
C 89.261017 367.032816 103.782443 388.765666 122.087576 407.070799 
C 140.392709 425.375932 162.125559 439.897358 186.042367 449.804024 
C 209.959176 459.710691 235.594821 464.809938 261.482187 464.809938 
C 287.369554 464.809938 313.005199 459.710691 336.922008 449.804024 
C 360.838816 439.897358 382.571666 425.375932 400.876799 407.070799 
C 419.181932 388.765666 433.703358 367.032816 443.610024 343.116008 
C 453.516691 319.199199 458.615937 293.563554 458.615937 267.676188 
M 261.482188 267.676188 
C 261.482188 267.676188 261.482188 267.676188 261.482188 267.676188 
C 261.482188 267.676188 261.482188 267.676188 261.482188 267.676188 
C 261.482188 267.676188 261.482188 267.676188 261.482188 267.676188 
C 261.482188 267.676188 261.482188 267.676188 261.482188 267.676188 
C 261.482188 267.676188 261.482188 267.676188 261.482188 267.676188 
C 261.482188 267.676188 261.482188 267.676188 261.482188 267.676188 
C 261.482188 267.676188 261.482188 267.676188 261.482188 267.676188 
C 261.482188 267.676188 261.482188 267.676188 261.482188 267.676188 
C 261.482188 267.676188 261.482188 267.676188 261.482188 267.676188 
C 261.482188 267.676188 261.482188 267.676188 261.482188 267.676188 
C 261.482188 267.676188 261.482188 267.676188 261.482188 267.676188 
C 261.482188 267.676188 261.482188 267.676188 261.482188 267.676188 
C 261.482188 267.676188 261.482188 267.676188 261.482188 267.676188 
C 261.482188 267.676188 261.482188 267.676188 261.482188 267.676188 
C 261.482188 267.676188 261.482188 267.676188 261.482188 267.676188 
C 261.482188 267.676188 261.482188 267.676188 261.482188 267.676188 
z
" style="fill: #ffffff"/>
   </g>
   <g id="patch_3">
    <path d="M 261.482188 79.424201 
L 344.196143 184.962232 
L 325.193018 267.676188 
L 283.037429 289.231429 
L 261.482188 293.584125 
L 243.564544 285.593831 
L 238.046984 267.676188 
L 246.467897 252.661897 
z
" clip-path="url(#p5cf0d61351)" style="fill: #1f77b4; opacity: 0.2"/>
   </g>
   <g id="matplotlib.axis_1">
    <g id="xtick_1">
     <g id="line2d_1">
      <path d="M 261.482188 267.676188 
L 261.482188 70.542437 
" clip-path="url(#p5cf0d61351)" style="fill: none; stroke: #b0b0b0; stroke-width: 0.8; stroke-linecap: square"/>
     </g>
     <g id="text_1">
      <!-- Immunoglobulin G -->
      <g transform="translate(215.493906 59.301812) scale(0.1 -0.1)">
       <defs>
        <path id="DejaVuSans-49" d="M 628 4666 
L 1259 4666 
L 1259 0 
L 628 0 
L 628 4666 
z
" transform="scale(0.015625)"/>
        <path id="DejaVuSans-6d" d="M 3328 2828 
Q 3544 3216 3844 3400 
Q 4144 3584 4550 3584 
Q 5097 3584 5394 3201 
Q 5691 2819 5691 2113 
L 5691 0 
L 5113 0 
L 5113 2094 
Q 5113 2597 4934 2840 
Q 4756 3084 4391 3084 
Q 3944 3084 3684 2787 
Q 3425 2491 3425 1978 
L 3425 0 
L 2847 0 
L 2847 2094 
Q 2847 2600 2669 2842 
Q 2491 3084 2119 3084 
Q 1678 3084 1418 2786 
Q 1159 2488 1159 1978 
L 1159 0 
L 581 0 
L 581 3500 
L 1159 3500 
L 1159 2956 
Q 1356 3278 1631 3431 
Q 1906 3584 2284 3584 
Q 2666 3584 2933 3390 
Q 3200 3197 3328 2828 
z
" transform="scale(0.015625)"/>
        <path id="DejaVuSans-75" d="M 544 1381 
L 544 3500 
L 1119 3500 
L 1119 1403 
Q 1119 906 1312 657 
Q 1506 409 1894 409 
Q 2359 409 2629 706 
Q 2900 1003 2900 1516 
L 2900 3500 
L 3475 3500 
L 3475 0 
L 2900 0 
L 2900 538 
Q 2691 219 2414 64 
Q 2138 -91 1772 -91 
Q 1169 -91 856 284 
Q 544 659 544 1381 
z
M 1991 3584 
L 1991 3584 
z
" transform="scale(0.015625)"/>
        <path id="DejaVuSans-6e" d="M 3513 2113 
L 3513 0 
L 2938 0 
L 2938 2094 
Q 2938 2591 2744 2837 
Q 2550 3084 2163 3084 
Q 1697 3084 1428 2787 
Q 1159 2491 1159 1978 
L 1159 0 
L 581 0 
L 581 3500 
L 1159 3500 
L 1159 2956 
Q 1366 3272 1645 3428 
Q 1925 3584 2291 3584 
Q 2894 3584 3203 3211 
Q 3513 2838 3513 2113 
z
" transform="scale(0.015625)"/>
        <path id="DejaVuSans-6f" d="M 1959 3097 
Q 1497 3097 1228 2736 
Q 959 2375 959 1747 
Q 959 1119 1226 758 
Q 1494 397 1959 397 
Q 2419 397 2687 759 
Q 2956 1122 2956 1747 
Q 2956 2369 2687 2733 
Q 2419 3097 1959 3097 
z
M 1959 3584 
Q 2709 3584 3137 3096 
Q 3566 2609 3566 1747 
Q 3566 888 3137 398 
Q 2709 -91 1959 -91 
Q 1206 -91 779 398 
Q 353 888 353 1747 
Q 353 2609 779 3096 
Q 1206 3584 1959 3584 
z
" transform="scale(0.015625)"/>
        <path id="DejaVuSans-67" d="M 2906 1791 
Q 2906 2416 2648 2759 
Q 2391 3103 1925 3103 
Q 1463 3103 1205 2759 
Q 947 2416 947 1791 
Q 947 1169 1205 825 
Q 1463 481 1925 481 
Q 2391 481 2648 825 
Q 2906 1169 2906 1791 
z
M 3481 434 
Q 3481 -459 3084 -895 
Q 2688 -1331 1869 -1331 
Q 1566 -1331 1297 -1286 
Q 1028 -1241 775 -1147 
L 775 -588 
Q 1028 -725 1275 -790 
Q 1522 -856 1778 -856 
Q 2344 -856 2625 -561 
Q 2906 -266 2906 331 
L 2906 616 
Q 2728 306 2450 153 
Q 2172 0 1784 0 
Q 1141 0 747 490 
Q 353 981 353 1791 
Q 353 2603 747 3093 
Q 1141 3584 1784 3584 
Q 2172 3584 2450 3431 
Q 2728 3278 2906 2969 
L 2906 3500 
L 3481 3500 
L 3481 434 
z
" transform="scale(0.015625)"/>
        <path id="DejaVuSans-6c" d="M 603 4863 
L 1178 4863 
L 1178 0 
L 603 0 
L 603 4863 
z
" transform="scale(0.015625)"/>
        <path id="DejaVuSans-62" d="M 3116 1747 
Q 3116 2381 2855 2742 
Q 2594 3103 2138 3103 
Q 1681 3103 1420 2742 
Q 1159 2381 1159 1747 
Q 1159 1113 1420 752 
Q 1681 391 2138 391 
Q 2594 391 2855 752 
Q 3116 1113 3116 1747 
z
M 1159 2969 
Q 1341 3281 1617 3432 
Q 1894 3584 2278 3584 
Q 2916 3584 3314 3078 
Q 3713 2572 3713 1747 
Q 3713 922 3314 415 
Q 2916 -91 2278 -91 
Q 1894 -91 1617 61 
Q 1341 213 1159 525 
L 1159 0 
L 581 0 
L 581 4863 
L 1159 4863 
L 1159 2969 
z
" transform="scale(0.015625)"/>
        <path id="DejaVuSans-69" d="M 603 3500 
L 1178 3500 
L 1178 0 
L 603 0 
L 603 3500 
z
M 603 4863 
L 1178 4863 
L 1178 4134 
L 603 4134 
L 603 4863 
z
" transform="scale(0.015625)"/>
        <path id="DejaVuSans-20" transform="scale(0.015625)"/>
        <path id="DejaVuSans-47" d="M 3809 666 
L 3809 1919 
L 2778 1919 
L 2778 2438 
L 4434 2438 
L 4434 434 
Q 4069 175 3628 42 
Q 3188 -91 2688 -91 
Q 1594 -91 976 548 
Q 359 1188 359 2328 
Q 359 3472 976 4111 
Q 1594 4750 2688 4750 
Q 3144 4750 3555 4637 
Q 3966 4525 4313 4306 
L 4313 3634 
Q 3963 3931 3569 4081 
Q 3175 4231 2741 4231 
Q 1884 4231 1454 3753 
Q 1025 3275 1025 2328 
Q 1025 1384 1454 906 
Q 1884 428 2741 428 
Q 3075 428 3337 486 
Q 3600 544 3809 666 
z
" transform="scale(0.015625)"/>
       </defs>
       <use xlink:href="#DejaVuSans-49"/>
       <use xlink:href="#DejaVuSans-6d" transform="translate(29.492188 0)"/>
       <use xlink:href="#DejaVuSans-6d" transform="translate(126.904297 0)"/>
       <use xlink:href="#DejaVuSans-75" transform="translate(224.316406 0)"/>
       <use xlink:href="#DejaVuSans-6e" transform="translate(287.695312 0)"/>
       <use xlink:href="#DejaVuSans-6f" transform="translate(351.074219 0)"/>
       <use xlink:href="#DejaVuSans-67" transform="translate(412.255859 0)"/>
       <use xlink:href="#DejaVuSans-6c" transform="translate(475.732422 0)"/>
       <use xlink:href="#DejaVuSans-6f" transform="translate(503.515625 0)"/>
       <use xlink:href="#DejaVuSans-62" transform="translate(564.697266 0)"/>
       <use xlink:href="#DejaVuSans-75" transform="translate(628.173828 0)"/>
       <use xlink:href="#DejaVuSans-6c" transform="translate(691.552734 0)"/>
       <use xlink:href="#DejaVuSans-69" transform="translate(719.335938 0)"/>
       <use xlink:href="#DejaVuSans-6e" transform="translate(747.119141 0)"/>
       <use xlink:href="#DejaVuSans-20" transform="translate(810.498047 0)"/>
       <use xlink:href="#DejaVuSans-47" transform="translate(842.285156 0)"/>
      </g>
     </g>
    </g>
    <g id="xtick_2">
     <g id="line2d_2">
      <path d="M 261.482188 267.676188 
L 400.876799 128.281576 
" clip-path="url(#p5cf0d61351)" style="fill: none; stroke: #b0b0b0; stroke-width: 0.8; stroke-linecap: square"/>
     </g>
     <g id="text_2">
      <!-- Alanine Aminotransferase (ALT) -->
      <g transform="translate(332.04895 121.141456) scale(0.1 -0.1)">
       <defs>
        <path id="DejaVuSans-41" d="M 2188 4044 
L 1331 1722 
L 3047 1722 
L 2188 4044 
z
M 1831 4666 
L 2547 4666 
L 4325 0 
L 3669 0 
L 3244 1197 
L 1141 1197 
L 716 0 
L 50 0 
L 1831 4666 
z
" transform="scale(0.015625)"/>
        <path id="DejaVuSans-61" d="M 2194 1759 
Q 1497 1759 1228 1600 
Q 959 1441 959 1056 
Q 959 750 1161 570 
Q 1363 391 1709 391 
Q 2188 391 2477 730 
Q 2766 1069 2766 1631 
L 2766 1759 
L 2194 1759 
z
M 3341 1997 
L 3341 0 
L 2766 0 
L 2766 531 
Q 2569 213 2275 61 
Q 1981 -91 1556 -91 
Q 1019 -91 701 211 
Q 384 513 384 1019 
Q 384 1609 779 1909 
Q 1175 2209 1959 2209 
L 2766 2209 
L 2766 2266 
Q 2766 2663 2505 2880 
Q 2244 3097 1772 3097 
Q 1472 3097 1187 3025 
Q 903 2953 641 2809 
L 641 3341 
Q 956 3463 1253 3523 
Q 1550 3584 1831 3584 
Q 2591 3584 2966 3190 
Q 3341 2797 3341 1997 
z
" transform="scale(0.015625)"/>
        <path id="DejaVuSans-65" d="M 3597 1894 
L 3597 1613 
L 953 1613 
Q 991 1019 1311 708 
Q 1631 397 2203 397 
Q 2534 397 2845 478 
Q 3156 559 3463 722 
L 3463 178 
Q 3153 47 2828 -22 
Q 2503 -91 2169 -91 
Q 1331 -91 842 396 
Q 353 884 353 1716 
Q 353 2575 817 3079 
Q 1281 3584 2069 3584 
Q 2775 3584 3186 3129 
Q 3597 2675 3597 1894 
z
M 3022 2063 
Q 3016 2534 2758 2815 
Q 2500 3097 2075 3097 
Q 1594 3097 1305 2825 
Q 1016 2553 972 2059 
L 3022 2063 
z
" transform="scale(0.015625)"/>
        <path id="DejaVuSans-74" d="M 1172 4494 
L 1172 3500 
L 2356 3500 
L 2356 3053 
L 1172 3053 
L 1172 1153 
Q 1172 725 1289 603 
Q 1406 481 1766 481 
L 2356 481 
L 2356 0 
L 1766 0 
Q 1100 0 847 248 
Q 594 497 594 1153 
L 594 3053 
L 172 3053 
L 172 3500 
L 594 3500 
L 594 4494 
L 1172 4494 
z
" transform="scale(0.015625)"/>
        <path id="DejaVuSans-72" d="M 2631 2963 
Q 2534 3019 2420 3045 
Q 2306 3072 2169 3072 
Q 1681 3072 1420 2755 
Q 1159 2438 1159 1844 
L 1159 0 
L 581 0 
L 581 3500 
L 1159 3500 
L 1159 2956 
Q 1341 3275 1631 3429 
Q 1922 3584 2338 3584 
Q 2397 3584 2469 3576 
Q 2541 3569 2628 3553 
L 2631 2963 
z
" transform="scale(0.015625)"/>
        <path id="DejaVuSans-73" d="M 2834 3397 
L 2834 2853 
Q 2591 2978 2328 3040 
Q 2066 3103 1784 3103 
Q 1356 3103 1142 2972 
Q 928 2841 928 2578 
Q 928 2378 1081 2264 
Q 1234 2150 1697 2047 
L 1894 2003 
Q 2506 1872 2764 1633 
Q 3022 1394 3022 966 
Q 3022 478 2636 193 
Q 2250 -91 1575 -91 
Q 1294 -91 989 -36 
Q 684 19 347 128 
L 347 722 
Q 666 556 975 473 
Q 1284 391 1588 391 
Q 1994 391 2212 530 
Q 2431 669 2431 922 
Q 2431 1156 2273 1281 
Q 2116 1406 1581 1522 
L 1381 1569 
Q 847 1681 609 1914 
Q 372 2147 372 2553 
Q 372 3047 722 3315 
Q 1072 3584 1716 3584 
Q 2034 3584 2315 3537 
Q 2597 3491 2834 3397 
z
" transform="scale(0.015625)"/>
        <path id="DejaVuSans-66" d="M 2375 4863 
L 2375 4384 
L 1825 4384 
Q 1516 4384 1395 4259 
Q 1275 4134 1275 3809 
L 1275 3500 
L 2222 3500 
L 2222 3053 
L 1275 3053 
L 1275 0 
L 697 0 
L 697 3053 
L 147 3053 
L 147 3500 
L 697 3500 
L 697 3744 
Q 697 4328 969 4595 
Q 1241 4863 1831 4863 
L 2375 4863 
z
" transform="scale(0.015625)"/>
        <path id="DejaVuSans-28" d="M 1984 4856 
Q 1566 4138 1362 3434 
Q 1159 2731 1159 2009 
Q 1159 1288 1364 580 
Q 1569 -128 1984 -844 
L 1484 -844 
Q 1016 -109 783 600 
Q 550 1309 550 2009 
Q 550 2706 781 3412 
Q 1013 4119 1484 4856 
L 1984 4856 
z
" transform="scale(0.015625)"/>
        <path id="DejaVuSans-4c" d="M 628 4666 
L 1259 4666 
L 1259 531 
L 3531 531 
L 3531 0 
L 628 0 
L 628 4666 
z
" transform="scale(0.015625)"/>
        <path id="DejaVuSans-54" d="M -19 4666 
L 3928 4666 
L 3928 4134 
L 2272 4134 
L 2272 0 
L 1638 0 
L 1638 4134 
L -19 4134 
L -19 4666 
z
" transform="scale(0.015625)"/>
        <path id="DejaVuSans-29" d="M 513 4856 
L 1013 4856 
Q 1481 4119 1714 3412 
Q 1947 2706 1947 2009 
Q 1947 1309 1714 600 
Q 1481 -109 1013 -844 
L 513 -844 
Q 928 -128 1133 580 
Q 1338 1288 1338 2009 
Q 1338 2731 1133 3434 
Q 928 4138 513 4856 
z
" transform="scale(0.015625)"/>
       </defs>
       <use xlink:href="#DejaVuSans-41"/>
       <use xlink:href="#DejaVuSans-6c" transform="translate(68.408203 0)"/>
       <use xlink:href="#DejaVuSans-61" transform="translate(96.191406 0)"/>
       <use xlink:href="#DejaVuSans-6e" transform="translate(157.470703 0)"/>
       <use xlink:href="#DejaVuSans-69" transform="translate(220.849609 0)"/>
       <use xlink:href="#DejaVuSans-6e" transform="translate(248.632812 0)"/>
       <use xlink:href="#DejaVuSans-65" transform="translate(312.011719 0)"/>
       <use xlink:href="#DejaVuSans-20" transform="translate(373.535156 0)"/>
       <use xlink:href="#DejaVuSans-41" transform="translate(405.322266 0)"/>
       <use xlink:href="#DejaVuSans-6d" transform="translate(473.730469 0)"/>
       <use xlink:href="#DejaVuSans-69" transform="translate(571.142578 0)"/>
       <use xlink:href="#DejaVuSans-6e" transform="translate(598.925781 0)"/>
       <use xlink:href="#DejaVuSans-6f" transform="translate(662.304688 0)"/>
       <use xlink:href="#DejaVuSans-74" transform="translate(723.486328 0)"/>
       <use xlink:href="#DejaVuSans-72" transform="translate(762.695312 0)"/>
       <use xlink:href="#DejaVuSans-61" transform="translate(803.808594 0)"/>
       <use xlink:href="#DejaVuSans-6e" transform="translate(865.087891 0)"/>
       <use xlink:href="#DejaVuSans-73" transform="translate(928.466797 0)"/>
       <use xlink:href="#DejaVuSans-66" transform="translate(980.566406 0)"/>
       <use xlink:href="#DejaVuSans-65" transform="translate(1015.771484 0)"/>
       <use xlink:href="#DejaVuSans-72" transform="translate(1077.294922 0)"/>
       <use xlink:href="#DejaVuSans-61" transform="translate(1118.408203 0)"/>
       <use xlink:href="#DejaVuSans-73" transform="translate(1179.6875 0)"/>
       <use xlink:href="#DejaVuSans-65" transform="translate(1231.787109 0)"/>
       <use xlink:href="#DejaVuSans-20" transform="translate(1293.310547 0)"/>
       <use xlink:href="#DejaVuSans-28" transform="translate(1325.097656 0)"/>
       <use xlink:href="#DejaVuSans-41" transform="translate(1364.111328 0)"/>
       <use xlink:href="#DejaVuSans-4c" transform="translate(1432.519531 0)"/>
       <use xlink:href="#DejaVuSans-54" transform="translate(1474.482422 0)"/>
       <use xlink:href="#DejaVuSans-29" transform="translate(1535.566406 0)"/>
      </g>
     </g>
    </g>
    <g id="xtick_3">
     <g id="line2d_3">
      <path d="M 261.482188 267.676188 
L 458.615938 267.676188 
" clip-path="url(#p5cf0d61351)" style="fill: none; stroke: #b0b0b0; stroke-width: 0.8; stroke-linecap: square"/>
     </g>
     <g id="text_3">
      <!-- Urea Nitrogen, Urine -->
      <g transform="translate(421.244844 270.435563) scale(0.1 -0.1)">
       <defs>
        <path id="DejaVuSans-55" d="M 556 4666 
L 1191 4666 
L 1191 1831 
Q 1191 1081 1462 751 
Q 1734 422 2344 422 
Q 2950 422 3222 751 
Q 3494 1081 3494 1831 
L 3494 4666 
L 4128 4666 
L 4128 1753 
Q 4128 841 3676 375 
Q 3225 -91 2344 -91 
Q 1459 -91 1007 375 
Q 556 841 556 1753 
L 556 4666 
z
" transform="scale(0.015625)"/>
        <path id="DejaVuSans-4e" d="M 628 4666 
L 1478 4666 
L 3547 763 
L 3547 4666 
L 4159 4666 
L 4159 0 
L 3309 0 
L 1241 3903 
L 1241 0 
L 628 0 
L 628 4666 
z
" transform="scale(0.015625)"/>
        <path id="DejaVuSans-2c" d="M 750 794 
L 1409 794 
L 1409 256 
L 897 -744 
L 494 -744 
L 750 256 
L 750 794 
z
" transform="scale(0.015625)"/>
       </defs>
       <use xlink:href="#DejaVuSans-55"/>
       <use xlink:href="#DejaVuSans-72" transform="translate(73.193359 0)"/>
       <use xlink:href="#DejaVuSans-65" transform="translate(112.056641 0)"/>
       <use xlink:href="#DejaVuSans-61" transform="translate(173.580078 0)"/>
       <use xlink:href="#DejaVuSans-20" transform="translate(234.859375 0)"/>
       <use xlink:href="#DejaVuSans-4e" transform="translate(266.646484 0)"/>
       <use xlink:href="#DejaVuSans-69" transform="translate(341.451172 0)"/>
       <use xlink:href="#DejaVuSans-74" transform="translate(369.234375 0)"/>
       <use xlink:href="#DejaVuSans-72" transform="translate(408.443359 0)"/>
       <use xlink:href="#DejaVuSans-6f" transform="translate(447.306641 0)"/>
       <use xlink:href="#DejaVuSans-67" transform="translate(508.488281 0)"/>
       <use xlink:href="#DejaVuSans-65" transform="translate(571.964844 0)"/>
       <use xlink:href="#DejaVuSans-6e" transform="translate(633.488281 0)"/>
       <use xlink:href="#DejaVuSans-2c" transform="translate(696.867188 0)"/>
       <use xlink:href="#DejaVuSans-20" transform="translate(728.654297 0)"/>
       <use xlink:href="#DejaVuSans-55" transform="translate(760.441406 0)"/>
       <use xlink:href="#DejaVuSans-72" transform="translate(833.634766 0)"/>
       <use xlink:href="#DejaVuSans-69" transform="translate(874.748047 0)"/>
       <use xlink:href="#DejaVuSans-6e" transform="translate(902.53125 0)"/>
       <use xlink:href="#DejaVuSans-65" transform="translate(965.910156 0)"/>
      </g>
     </g>
    </g>
    <g id="xtick_4">
     <g id="line2d_4">
      <path d="M 261.482188 267.676188 
L 400.876799 407.070799 
" clip-path="url(#p5cf0d61351)" style="fill: none; stroke: #b0b0b0; stroke-width: 0.8; stroke-linecap: square"/>
     </g>
     <g id="text_4">
      <!-- pCO2 -->
      <g transform="translate(396.993481 419.729669) scale(0.1 -0.1)">
       <defs>
        <path id="DejaVuSans-70" d="M 1159 525 
L 1159 -1331 
L 581 -1331 
L 581 3500 
L 1159 3500 
L 1159 2969 
Q 1341 3281 1617 3432 
Q 1894 3584 2278 3584 
Q 2916 3584 3314 3078 
Q 3713 2572 3713 1747 
Q 3713 922 3314 415 
Q 2916 -91 2278 -91 
Q 1894 -91 1617 61 
Q 1341 213 1159 525 
z
M 3116 1747 
Q 3116 2381 2855 2742 
Q 2594 3103 2138 3103 
Q 1681 3103 1420 2742 
Q 1159 2381 1159 1747 
Q 1159 1113 1420 752 
Q 1681 391 2138 391 
Q 2594 391 2855 752 
Q 3116 1113 3116 1747 
z
" transform="scale(0.015625)"/>
        <path id="DejaVuSans-43" d="M 4122 4306 
L 4122 3641 
Q 3803 3938 3442 4084 
Q 3081 4231 2675 4231 
Q 1875 4231 1450 3742 
Q 1025 3253 1025 2328 
Q 1025 1406 1450 917 
Q 1875 428 2675 428 
Q 3081 428 3442 575 
Q 3803 722 4122 1019 
L 4122 359 
Q 3791 134 3420 21 
Q 3050 -91 2638 -91 
Q 1578 -91 968 557 
Q 359 1206 359 2328 
Q 359 3453 968 4101 
Q 1578 4750 2638 4750 
Q 3056 4750 3426 4639 
Q 3797 4528 4122 4306 
z
" transform="scale(0.015625)"/>
        <path id="DejaVuSans-4f" d="M 2522 4238 
Q 1834 4238 1429 3725 
Q 1025 3213 1025 2328 
Q 1025 1447 1429 934 
Q 1834 422 2522 422 
Q 3209 422 3611 934 
Q 4013 1447 4013 2328 
Q 4013 3213 3611 3725 
Q 3209 4238 2522 4238 
z
M 2522 4750 
Q 3503 4750 4090 4092 
Q 4678 3434 4678 2328 
Q 4678 1225 4090 567 
Q 3503 -91 2522 -91 
Q 1538 -91 948 565 
Q 359 1222 359 2328 
Q 359 3434 948 4092 
Q 1538 4750 2522 4750 
z
" transform="scale(0.015625)"/>
        <path id="DejaVuSans-32" d="M 1228 531 
L 3431 531 
L 3431 0 
L 469 0 
L 469 531 
Q 828 903 1448 1529 
Q 2069 2156 2228 2338 
Q 2531 2678 2651 2914 
Q 2772 3150 2772 3378 
Q 2772 3750 2511 3984 
Q 2250 4219 1831 4219 
Q 1534 4219 1204 4116 
Q 875 4013 500 3803 
L 500 4441 
Q 881 4594 1212 4672 
Q 1544 4750 1819 4750 
Q 2544 4750 2975 4387 
Q 3406 4025 3406 3419 
Q 3406 3131 3298 2873 
Q 3191 2616 2906 2266 
Q 2828 2175 2409 1742 
Q 1991 1309 1228 531 
z
" transform="scale(0.015625)"/>
       </defs>
       <use xlink:href="#DejaVuSans-70"/>
       <use xlink:href="#DejaVuSans-43" transform="translate(63.476562 0)"/>
       <use xlink:href="#DejaVuSans-4f" transform="translate(133.300781 0)"/>
       <use xlink:href="#DejaVuSans-32" transform="translate(212.011719 0)"/>
      </g>
     </g>
    </g>
    <g id="xtick_5">
     <g id="line2d_5">
      <path d="M 261.482188 267.676188 
L 261.482188 464.809938 
" clip-path="url(#p5cf0d61351)" style="fill: none; stroke: #b0b0b0; stroke-width: 0.8; stroke-linecap: square"/>
     </g>
     <g id="text_5">
      <!-- Sodium -->
      <g transform="translate(242.64625 481.569313) scale(0.1 -0.1)">
       <defs>
        <path id="DejaVuSans-53" d="M 3425 4513 
L 3425 3897 
Q 3066 4069 2747 4153 
Q 2428 4238 2131 4238 
Q 1616 4238 1336 4038 
Q 1056 3838 1056 3469 
Q 1056 3159 1242 3001 
Q 1428 2844 1947 2747 
L 2328 2669 
Q 3034 2534 3370 2195 
Q 3706 1856 3706 1288 
Q 3706 609 3251 259 
Q 2797 -91 1919 -91 
Q 1588 -91 1214 -16 
Q 841 59 441 206 
L 441 856 
Q 825 641 1194 531 
Q 1563 422 1919 422 
Q 2459 422 2753 634 
Q 3047 847 3047 1241 
Q 3047 1584 2836 1778 
Q 2625 1972 2144 2069 
L 1759 2144 
Q 1053 2284 737 2584 
Q 422 2884 422 3419 
Q 422 4038 858 4394 
Q 1294 4750 2059 4750 
Q 2388 4750 2728 4690 
Q 3069 4631 3425 4513 
z
" transform="scale(0.015625)"/>
        <path id="DejaVuSans-64" d="M 2906 2969 
L 2906 4863 
L 3481 4863 
L 3481 0 
L 2906 0 
L 2906 525 
Q 2725 213 2448 61 
Q 2172 -91 1784 -91 
Q 1150 -91 751 415 
Q 353 922 353 1747 
Q 353 2572 751 3078 
Q 1150 3584 1784 3584 
Q 2172 3584 2448 3432 
Q 2725 3281 2906 2969 
z
M 947 1747 
Q 947 1113 1208 752 
Q 1469 391 1925 391 
Q 2381 391 2643 752 
Q 2906 1113 2906 1747 
Q 2906 2381 2643 2742 
Q 2381 3103 1925 3103 
Q 1469 3103 1208 2742 
Q 947 2381 947 1747 
z
" transform="scale(0.015625)"/>
       </defs>
       <use xlink:href="#DejaVuSans-53"/>
       <use xlink:href="#DejaVuSans-6f" transform="translate(63.476562 0)"/>
       <use xlink:href="#DejaVuSans-64" transform="translate(124.658203 0)"/>
       <use xlink:href="#DejaVuSans-69" transform="translate(188.134766 0)"/>
       <use xlink:href="#DejaVuSans-75" transform="translate(215.917969 0)"/>
       <use xlink:href="#DejaVuSans-6d" transform="translate(279.296875 0)"/>
      </g>
     </g>
    </g>
    <g id="xtick_6">
     <g id="line2d_6">
      <path d="M 261.482188 267.676188 
L 122.087576 407.070799 
" clip-path="url(#p5cf0d61351)" style="fill: none; stroke: #b0b0b0; stroke-width: 0.8; stroke-linecap: square"/>
     </g>
     <g id="text_6">
      <!-- PT -->
      <g transform="translate(106.119331 419.729669) scale(0.1 -0.1)">
       <defs>
        <path id="DejaVuSans-50" d="M 1259 4147 
L 1259 2394 
L 2053 2394 
Q 2494 2394 2734 2622 
Q 2975 2850 2975 3272 
Q 2975 3691 2734 3919 
Q 2494 4147 2053 4147 
L 1259 4147 
z
M 628 4666 
L 2053 4666 
Q 2838 4666 3239 4311 
Q 3641 3956 3641 3272 
Q 3641 2581 3239 2228 
Q 2838 1875 2053 1875 
L 1259 1875 
L 1259 0 
L 628 0 
L 628 4666 
z
" transform="scale(0.015625)"/>
       </defs>
       <use xlink:href="#DejaVuSans-50"/>
       <use xlink:href="#DejaVuSans-54" transform="translate(60.302734 0)"/>
      </g>
     </g>
    </g>
    <g id="xtick_7">
     <g id="line2d_7">
      <path d="M 261.482188 267.676188 
L 64.348437 267.676188 
" clip-path="url(#p5cf0d61351)" style="fill: none; stroke: #b0b0b0; stroke-width: 0.8; stroke-linecap: square"/>
     </g>
     <g id="text_7">
      <!-- Osmolality, Urine -->
      <g transform="translate(7.2 270.435563) scale(0.1 -0.1)">
       <defs>
        <path id="DejaVuSans-79" d="M 2059 -325 
Q 1816 -950 1584 -1140 
Q 1353 -1331 966 -1331 
L 506 -1331 
L 506 -850 
L 844 -850 
Q 1081 -850 1212 -737 
Q 1344 -625 1503 -206 
L 1606 56 
L 191 3500 
L 800 3500 
L 1894 763 
L 2988 3500 
L 3597 3500 
L 2059 -325 
z
" transform="scale(0.015625)"/>
       </defs>
       <use xlink:href="#DejaVuSans-4f"/>
       <use xlink:href="#DejaVuSans-73" transform="translate(78.710938 0)"/>
       <use xlink:href="#DejaVuSans-6d" transform="translate(130.810547 0)"/>
       <use xlink:href="#DejaVuSans-6f" transform="translate(228.222656 0)"/>
       <use xlink:href="#DejaVuSans-6c" transform="translate(289.404297 0)"/>
       <use xlink:href="#DejaVuSans-61" transform="translate(317.1875 0)"/>
       <use xlink:href="#DejaVuSans-6c" transform="translate(378.466797 0)"/>
       <use xlink:href="#DejaVuSans-69" transform="translate(406.25 0)"/>
       <use xlink:href="#DejaVuSans-74" transform="translate(434.033203 0)"/>
       <use xlink:href="#DejaVuSans-79" transform="translate(473.242188 0)"/>
       <use xlink:href="#DejaVuSans-2c" transform="translate(532.421875 0)"/>
       <use xlink:href="#DejaVuSans-20" transform="translate(564.208984 0)"/>
       <use xlink:href="#DejaVuSans-55" transform="translate(595.996094 0)"/>
       <use xlink:href="#DejaVuSans-72" transform="translate(669.189453 0)"/>
       <use xlink:href="#DejaVuSans-69" transform="translate(710.302734 0)"/>
       <use xlink:href="#DejaVuSans-6e" transform="translate(738.085938 0)"/>
       <use xlink:href="#DejaVuSans-65" transform="translate(801.464844 0)"/>
      </g>
     </g>
    </g>
    <g id="xtick_8">
     <g id="line2d_8">
      <path d="M 261.482188 267.676188 
L 122.087576 128.281576 
" clip-path="url(#p5cf0d61351)" style="fill: none; stroke: #b0b0b0; stroke-width: 0.8; stroke-linecap: square"/>
     </g>
     <g id="text_8">
      <!-- Epithelial Cells -->
      <g transform="translate(75.488862 121.141456) scale(0.1 -0.1)">
       <defs>
        <path id="DejaVuSans-45" d="M 628 4666 
L 3578 4666 
L 3578 4134 
L 1259 4134 
L 1259 2753 
L 3481 2753 
L 3481 2222 
L 1259 2222 
L 1259 531 
L 3634 531 
L 3634 0 
L 628 0 
L 628 4666 
z
" transform="scale(0.015625)"/>
        <path id="DejaVuSans-68" d="M 3513 2113 
L 3513 0 
L 2938 0 
L 2938 2094 
Q 2938 2591 2744 2837 
Q 2550 3084 2163 3084 
Q 1697 3084 1428 2787 
Q 1159 2491 1159 1978 
L 1159 0 
L 581 0 
L 581 4863 
L 1159 4863 
L 1159 2956 
Q 1366 3272 1645 3428 
Q 1925 3584 2291 3584 
Q 2894 3584 3203 3211 
Q 3513 2838 3513 2113 
z
" transform="scale(0.015625)"/>
       </defs>
       <use xlink:href="#DejaVuSans-45"/>
       <use xlink:href="#DejaVuSans-70" transform="translate(63.183594 0)"/>
       <use xlink:href="#DejaVuSans-69" transform="translate(126.660156 0)"/>
       <use xlink:href="#DejaVuSans-74" transform="translate(154.443359 0)"/>
       <use xlink:href="#DejaVuSans-68" transform="translate(193.652344 0)"/>
       <use xlink:href="#DejaVuSans-65" transform="translate(257.03125 0)"/>
       <use xlink:href="#DejaVuSans-6c" transform="translate(318.554688 0)"/>
       <use xlink:href="#DejaVuSans-69" transform="translate(346.337891 0)"/>
       <use xlink:href="#DejaVuSans-61" transform="translate(374.121094 0)"/>
       <use xlink:href="#DejaVuSans-6c" transform="translate(435.400391 0)"/>
       <use xlink:href="#DejaVuSans-20" transform="translate(463.183594 0)"/>
       <use xlink:href="#DejaVuSans-43" transform="translate(494.970703 0)"/>
       <use xlink:href="#DejaVuSans-65" transform="translate(564.794922 0)"/>
       <use xlink:href="#DejaVuSans-6c" transform="translate(626.318359 0)"/>
       <use xlink:href="#DejaVuSans-6c" transform="translate(654.101562 0)"/>
       <use xlink:href="#DejaVuSans-73" transform="translate(681.884766 0)"/>
      </g>
     </g>
    </g>
   </g>
   <g id="matplotlib.axis_2">
    <g id="ytick_1">
     <g id="line2d_9">
      <path d="M 261.482188 236.076949 
C 265.631762 236.076949 269.740986 236.894324 273.574693 238.482297 
C 277.408399 240.070271 280.892032 242.397959 283.826224 245.332151 
C 286.760416 248.266343 289.088104 251.749976 290.676078 255.583682 
C 292.264051 259.417389 293.081426 263.526613 293.081426 267.676188 
C 293.081426 271.825762 292.264051 275.934986 290.676078 279.768693 
C 289.088104 283.602399 286.760416 287.086032 283.826224 290.020224 
C 280.892032 292.954416 277.408399 295.282104 273.574693 296.870078 
C 269.740986 298.458051 265.631762 299.275426 261.482188 299.275426 
C 257.332613 299.275426 253.223389 298.458051 249.389682 296.870078 
C 245.555976 295.282104 242.072343 292.954416 239.138151 290.020224 
C 236.203959 287.086032 233.876271 283.602399 232.288297 279.768693 
C 230.700324 275.934986 229.882949 271.825762 229.882949 267.676188 
C 229.882949 263.526613 230.700324 259.417389 232.288297 255.583682 
C 233.876271 251.749976 236.203959 248.266343 239.138151 245.332151 
C 242.072343 242.397959 245.555976 240.070271 249.389682 238.482297 
C 253.223389 236.894324 257.332613 236.076949 261.482188 236.076949 
" clip-path="url(#p5cf0d61351)" style="fill: none; stroke: #b0b0b0; stroke-width: 0.8; stroke-linecap: square"/>
     </g>
     <g id="text_9">
      <!-- 0.01 -->
      <g transform="translate(273.574693 236.40261) scale(0.1 -0.1)">
       <defs>
        <path id="DejaVuSans-30" d="M 2034 4250 
Q 1547 4250 1301 3770 
Q 1056 3291 1056 2328 
Q 1056 1369 1301 889 
Q 1547 409 2034 409 
Q 2525 409 2770 889 
Q 3016 1369 3016 2328 
Q 3016 3291 2770 3770 
Q 2525 4250 2034 4250 
z
M 2034 4750 
Q 2819 4750 3233 4129 
Q 3647 3509 3647 2328 
Q 3647 1150 3233 529 
Q 2819 -91 2034 -91 
Q 1250 -91 836 529 
Q 422 1150 422 2328 
Q 422 3509 836 4129 
Q 1250 4750 2034 4750 
z
" transform="scale(0.015625)"/>
        <path id="DejaVuSans-2e" d="M 684 794 
L 1344 794 
L 1344 0 
L 684 0 
L 684 794 
z
" transform="scale(0.015625)"/>
        <path id="DejaVuSans-31" d="M 794 531 
L 1825 531 
L 1825 4091 
L 703 3866 
L 703 4441 
L 1819 4666 
L 2450 4666 
L 2450 531 
L 3481 531 
L 3481 0 
L 794 0 
L 794 531 
z
" transform="scale(0.015625)"/>
       </defs>
       <use xlink:href="#DejaVuSans-30"/>
       <use xlink:href="#DejaVuSans-2e" transform="translate(63.623047 0)"/>
       <use xlink:href="#DejaVuSans-30" transform="translate(95.410156 0)"/>
       <use xlink:href="#DejaVuSans-31" transform="translate(159.033203 0)"/>
      </g>
     </g>
    </g>
    <g id="ytick_2">
     <g id="line2d_10">
      <path d="M 261.482188 204.47771 
C 269.781336 204.47771 277.999785 206.112461 285.667198 209.288407 
C 293.334611 212.464354 300.301876 217.119731 306.17026 222.988115 
C 312.038644 228.856499 316.694021 235.823764 319.869968 243.491177 
C 323.045914 251.15859 324.680665 259.377039 324.680665 267.676188 
C 324.680665 275.975336 323.045914 284.193785 319.869968 291.861198 
C 316.694021 299.528611 312.038644 306.495876 306.17026 312.36426 
C 300.301876 318.232644 293.334611 322.888021 285.667198 326.063968 
C 277.999785 329.239914 269.781336 330.874665 261.482188 330.874665 
C 253.183039 330.874665 244.96459 329.239914 237.297177 326.063968 
C 229.629764 322.888021 222.662499 318.232644 216.794115 312.36426 
C 210.925731 306.495876 206.270354 299.528611 203.094407 291.861198 
C 199.918461 284.193785 198.28371 275.975336 198.28371 267.676188 
C 198.28371 259.377039 199.918461 251.15859 203.094407 243.491177 
C 206.270354 235.823764 210.925731 228.856499 216.794115 222.988115 
C 222.662499 217.119731 229.629764 212.464354 237.297177 209.288407 
C 244.96459 206.112461 253.183039 204.47771 261.482188 204.47771 
" clip-path="url(#p5cf0d61351)" style="fill: none; stroke: #b0b0b0; stroke-width: 0.8; stroke-linecap: square"/>
     </g>
     <g id="text_10">
      <!-- 0.02 -->
      <g transform="translate(285.667198 207.20872) scale(0.1 -0.1)">
       <use xlink:href="#DejaVuSans-30"/>
       <use xlink:href="#DejaVuSans-2e" transform="translate(63.623047 0)"/>
       <use xlink:href="#DejaVuSans-30" transform="translate(95.410156 0)"/>
       <use xlink:href="#DejaVuSans-32" transform="translate(159.033203 0)"/>
      </g>
     </g>
    </g>
    <g id="ytick_3">
     <g id="line2d_11">
      <path d="M 261.482188 172.878471 
C 273.93091 172.878471 286.258584 175.330598 297.759703 180.094517 
C 309.260823 184.858437 319.71172 191.841503 328.514296 200.644079 
C 337.316872 209.446655 344.299938 219.897552 349.063858 231.398672 
C 353.827777 242.899791 356.279904 255.227465 356.279904 267.676188 
C 356.279904 280.12491 353.827777 292.452584 349.063858 303.953703 
C 344.299938 315.454823 337.316872 325.90572 328.514296 334.708296 
C 319.71172 343.510872 309.260823 350.493938 297.759703 355.257858 
C 286.258584 360.021777 273.93091 362.473904 261.482188 362.473904 
C 249.033465 362.473904 236.705791 360.021777 225.204672 355.257858 
C 213.703552 350.493938 203.252655 343.510872 194.450079 334.708296 
C 185.647503 325.90572 178.664437 315.454823 173.900517 303.953703 
C 169.136598 292.452584 166.684471 280.12491 166.684471 267.676188 
C 166.684471 255.227465 169.136598 242.899791 173.900517 231.398672 
C 178.664437 219.897552 185.647503 209.446655 194.450079 200.644079 
C 203.252655 191.841503 213.703552 184.858437 225.204672 180.094517 
C 236.705791 175.330598 249.033465 172.878471 261.482188 172.878471 
" clip-path="url(#p5cf0d61351)" style="fill: none; stroke: #b0b0b0; stroke-width: 0.8; stroke-linecap: square"/>
     </g>
     <g id="text_11">
      <!-- 0.03 -->
      <g transform="translate(297.759703 178.01483) scale(0.1 -0.1)">
       <defs>
        <path id="DejaVuSans-33" d="M 2597 2516 
Q 3050 2419 3304 2112 
Q 3559 1806 3559 1356 
Q 3559 666 3084 287 
Q 2609 -91 1734 -91 
Q 1441 -91 1130 -33 
Q 819 25 488 141 
L 488 750 
Q 750 597 1062 519 
Q 1375 441 1716 441 
Q 2309 441 2620 675 
Q 2931 909 2931 1356 
Q 2931 1769 2642 2001 
Q 2353 2234 1838 2234 
L 1294 2234 
L 1294 2753 
L 1863 2753 
Q 2328 2753 2575 2939 
Q 2822 3125 2822 3475 
Q 2822 3834 2567 4026 
Q 2313 4219 1838 4219 
Q 1578 4219 1281 4162 
Q 984 4106 628 3988 
L 628 4550 
Q 988 4650 1302 4700 
Q 1616 4750 1894 4750 
Q 2613 4750 3031 4423 
Q 3450 4097 3450 3541 
Q 3450 3153 3228 2886 
Q 3006 2619 2597 2516 
z
" transform="scale(0.015625)"/>
       </defs>
       <use xlink:href="#DejaVuSans-30"/>
       <use xlink:href="#DejaVuSans-2e" transform="translate(63.623047 0)"/>
       <use xlink:href="#DejaVuSans-30" transform="translate(95.410156 0)"/>
       <use xlink:href="#DejaVuSans-33" transform="translate(159.033203 0)"/>
      </g>
     </g>
    </g>
    <g id="ytick_4">
     <g id="line2d_12">
      <path d="M 261.482188 141.279232 
C 278.080484 141.279232 294.517382 144.548734 309.852208 150.900627 
C 325.187034 157.25252 339.121564 166.563275 350.858332 178.300043 
C 362.5951 190.036811 371.905855 203.971341 378.257748 219.306167 
C 384.609641 234.640993 387.879143 251.077891 387.879143 267.676188 
C 387.879143 284.274484 384.609641 300.711382 378.257748 316.046208 
C 371.905855 331.381034 362.5951 345.315564 350.858332 357.052332 
C 339.121564 368.7891 325.187034 378.099855 309.852208 384.451748 
C 294.517382 390.803641 278.080484 394.073143 261.482188 394.073143 
C 244.883891 394.073143 228.446993 390.803641 213.112167 384.451748 
C 197.777341 378.099855 183.842811 368.7891 172.106043 357.052332 
C 160.369275 345.315564 151.05852 331.381034 144.706627 316.046208 
C 138.354734 300.711382 135.085232 284.274484 135.085232 267.676188 
C 135.085232 251.077891 138.354734 234.640993 144.706627 219.306167 
C 151.05852 203.971341 160.369275 190.036811 172.106043 178.300043 
C 183.842811 166.563275 197.777341 157.25252 213.112167 150.900627 
C 228.446993 144.548734 244.883891 141.279232 261.482188 141.279232 
" clip-path="url(#p5cf0d61351)" style="fill: none; stroke: #b0b0b0; stroke-width: 0.8; stroke-linecap: square"/>
     </g>
     <g id="text_12">
      <!-- 0.04 -->
      <g transform="translate(309.852208 148.82094) scale(0.1 -0.1)">
       <defs>
        <path id="DejaVuSans-34" d="M 2419 4116 
L 825 1625 
L 2419 1625 
L 2419 4116 
z
M 2253 4666 
L 3047 4666 
L 3047 1625 
L 3713 1625 
L 3713 1100 
L 3047 1100 
L 3047 0 
L 2419 0 
L 2419 1100 
L 313 1100 
L 313 1709 
L 2253 4666 
z
" transform="scale(0.015625)"/>
       </defs>
       <use xlink:href="#DejaVuSans-30"/>
       <use xlink:href="#DejaVuSans-2e" transform="translate(63.623047 0)"/>
       <use xlink:href="#DejaVuSans-30" transform="translate(95.410156 0)"/>
       <use xlink:href="#DejaVuSans-34" transform="translate(159.033203 0)"/>
      </g>
     </g>
    </g>
    <g id="ytick_5">
     <g id="line2d_13">
      <path d="M 261.482188 109.679993 
C 282.230058 109.679993 302.776181 113.766871 321.944714 121.706737 
C 341.113246 129.646603 358.531408 141.285047 373.202368 155.956007 
C 387.873328 170.626967 399.511772 188.045129 407.451638 207.213661 
C 415.391504 226.382194 419.478382 246.928317 419.478382 267.676188 
C 419.478382 288.424058 415.391504 308.970181 407.451638 328.138714 
C 399.511772 347.307246 387.873328 364.725408 373.202368 379.396368 
C 358.531408 394.067328 341.113246 405.705772 321.944714 413.645638 
C 302.776181 421.585504 282.230058 425.672382 261.482188 425.672382 
C 240.734317 425.672382 220.188194 421.585504 201.019661 413.645638 
C 181.851129 405.705772 164.432967 394.067328 149.762007 379.396368 
C 135.091047 364.725408 123.452603 347.307246 115.512737 328.138714 
C 107.572871 308.970181 103.485993 288.424058 103.485993 267.676188 
C 103.485993 246.928317 107.572871 226.382194 115.512737 207.213661 
C 123.452603 188.045129 135.091047 170.626967 149.762007 155.956007 
C 164.432967 141.285047 181.851129 129.646603 201.019661 121.706737 
C 220.188194 113.766871 240.734317 109.679993 261.482187 109.679993 
" clip-path="url(#p5cf0d61351)" style="fill: none; stroke: #b0b0b0; stroke-width: 0.8; stroke-linecap: square"/>
     </g>
     <g id="text_13">
      <!-- 0.05 -->
      <g transform="translate(321.944714 119.62705) scale(0.1 -0.1)">
       <defs>
        <path id="DejaVuSans-35" d="M 691 4666 
L 3169 4666 
L 3169 4134 
L 1269 4134 
L 1269 2991 
Q 1406 3038 1543 3061 
Q 1681 3084 1819 3084 
Q 2600 3084 3056 2656 
Q 3513 2228 3513 1497 
Q 3513 744 3044 326 
Q 2575 -91 1722 -91 
Q 1428 -91 1123 -41 
Q 819 9 494 109 
L 494 744 
Q 775 591 1075 516 
Q 1375 441 1709 441 
Q 2250 441 2565 725 
Q 2881 1009 2881 1497 
Q 2881 1984 2565 2268 
Q 2250 2553 1709 2553 
Q 1456 2553 1204 2497 
Q 953 2441 691 2322 
L 691 4666 
z
" transform="scale(0.015625)"/>
       </defs>
       <use xlink:href="#DejaVuSans-30"/>
       <use xlink:href="#DejaVuSans-2e" transform="translate(63.623047 0)"/>
       <use xlink:href="#DejaVuSans-30" transform="translate(95.410156 0)"/>
       <use xlink:href="#DejaVuSans-35" transform="translate(159.033203 0)"/>
      </g>
     </g>
    </g>
    <g id="ytick_6">
     <g id="line2d_14">
      <path d="M 261.482188 78.080754 
C 286.379632 78.080754 311.03498 82.985008 334.037219 92.512847 
C 357.039458 102.040686 377.941253 116.006819 395.546404 133.611971 
C 413.151556 151.217122 427.117689 172.118917 436.645528 195.121156 
C 446.173367 218.123395 451.077621 242.778743 451.077621 267.676188 
C 451.077621 292.573632 446.173367 317.22898 436.645528 340.231219 
C 427.117689 363.233458 413.151556 384.135253 395.546404 401.740404 
C 377.941253 419.345556 357.039458 433.311689 334.037219 442.839528 
C 311.03498 452.367367 286.379632 457.271621 261.482188 457.271621 
C 236.584743 457.271621 211.929395 452.367367 188.927156 442.839528 
C 165.924917 433.311689 145.023122 419.345556 127.417971 401.740404 
C 109.812819 384.135253 95.846686 363.233458 86.318847 340.231219 
C 76.791008 317.22898 71.886754 292.573632 71.886754 267.676188 
C 71.886754 242.778743 76.791008 218.123395 86.318847 195.121156 
C 95.846686 172.118917 109.812819 151.217122 127.417971 133.611971 
C 145.023122 116.006819 165.924917 102.040686 188.927156 92.512847 
C 211.929395 82.985008 236.584743 78.080754 261.482187 78.080754 
" clip-path="url(#p5cf0d61351)" style="fill: none; stroke: #b0b0b0; stroke-width: 0.8; stroke-linecap: square"/>
     </g>
     <g id="text_14">
      <!-- 0.06 -->
      <g transform="translate(334.037219 90.43316) scale(0.1 -0.1)">
       <defs>
        <path id="DejaVuSans-36" d="M 2113 2584 
Q 1688 2584 1439 2293 
Q 1191 2003 1191 1497 
Q 1191 994 1439 701 
Q 1688 409 2113 409 
Q 2538 409 2786 701 
Q 3034 994 3034 1497 
Q 3034 2003 2786 2293 
Q 2538 2584 2113 2584 
z
M 3366 4563 
L 3366 3988 
Q 3128 4100 2886 4159 
Q 2644 4219 2406 4219 
Q 1781 4219 1451 3797 
Q 1122 3375 1075 2522 
Q 1259 2794 1537 2939 
Q 1816 3084 2150 3084 
Q 2853 3084 3261 2657 
Q 3669 2231 3669 1497 
Q 3669 778 3244 343 
Q 2819 -91 2113 -91 
Q 1303 -91 875 529 
Q 447 1150 447 2328 
Q 447 3434 972 4092 
Q 1497 4750 2381 4750 
Q 2619 4750 2861 4703 
Q 3103 4656 3366 4563 
z
" transform="scale(0.015625)"/>
       </defs>
       <use xlink:href="#DejaVuSans-30"/>
       <use xlink:href="#DejaVuSans-2e" transform="translate(63.623047 0)"/>
       <use xlink:href="#DejaVuSans-30" transform="translate(95.410156 0)"/>
       <use xlink:href="#DejaVuSans-36" transform="translate(159.033203 0)"/>
      </g>
     </g>
    </g>
   </g>
   <g id="line2d_15">
    <path d="M 261.482188 79.424201 
L 344.196143 184.962232 
L 325.193018 267.676188 
L 283.037429 289.231429 
L 261.482188 293.584125 
L 243.564544 285.593831 
L 238.046984 267.676188 
L 246.467897 252.661897 
L 261.482188 79.424201 
" clip-path="url(#p5cf0d61351)" style="fill: none; stroke: #000000; stroke-width: 2; stroke-linecap: square"/>
   </g>
   <g id="line2d_16">
    <path d="M 261.482188 257.059481 
L 263.151283 257.191504 
L 264.778866 257.584291 
L 266.324459 258.228073 
L 267.749619 259.106837 
L 269.018903 260.198729 
L 270.100742 261.476592 
L 270.96823 262.908645 
L 271.599791 264.45927 
L 271.979719 266.089904 
L 272.098564 267.759989 
L 271.953369 269.42799 
L 271.547748 271.052423 
L 270.891786 272.592885 
L 270.0018 274.011065 
L 268.899923 275.271691 
L 267.61356 276.343409 
L 266.174705 277.199566 
L 264.619142 277.818868 
L 262.985561 278.185913 
L 261.31459 278.291571 
L 259.647786 278.133216 
L 258.026606 277.714784 
L 256.49137 277.046684 
L 255.080259 276.145531 
L 253.82837 275.033738 
L 252.766839 273.738956 
L 251.922066 272.293387 
L 251.315061 270.732985 
L 250.960923 269.096557 
L 250.868457 267.424804 
L 251.039965 265.759302 
L 251.47118 264.141476 
L 252.151377 262.61156 
L 253.063641 261.207607 
L 254.185281 259.964533 
L 255.488402 258.913254 
L 256.940593 258.079918 
L 258.505738 257.48525 
L 260.14491 257.144039 
L 261.482188 257.059481 
L 261.482188 257.059481 
" clip-path="url(#p5cf0d61351)" style="fill: none; stroke-dasharray: 5.55,2.4; stroke-dashoffset: 0; stroke: #808080; stroke-width: 1.5"/>
   </g>
   <g id="patch_4">
    <path d="M 261.482187 70.542438 
C 235.594821 70.542438 209.959176 75.641684 186.042367 85.548351 
C 162.125559 95.455017 140.392709 109.976443 122.087576 128.281576 
C 103.782443 146.586709 89.261017 168.319559 79.354351 192.236367 
C 69.447684 216.153176 64.348438 241.788821 64.348438 267.676188 
C 64.348438 293.563554 69.447684 319.199199 79.354351 343.116008 
C 89.261017 367.032816 103.782443 388.765666 122.087576 407.070799 
C 140.392709 425.375932 162.125559 439.897358 186.042367 449.804024 
C 209.959176 459.710691 235.594821 464.809938 261.482188 464.809938 
C 287.369554 464.809938 313.005199 459.710691 336.922008 449.804024 
C 360.838816 439.897358 382.571666 425.375932 400.876799 407.070799 
C 419.181932 388.765666 433.703358 367.032816 443.610024 343.116008 
C 453.516691 319.199199 458.615937 293.563554 458.615937 267.676188 
C 458.615937 241.788821 453.516691 216.153176 443.610024 192.236367 
C 433.703358 168.319559 419.181932 146.586709 400.876799 128.281576 
C 382.571666 109.976443 360.838816 95.455017 336.922008 85.548351 
C 313.005199 75.641684 287.369554 70.542438 261.482188 70.542438 
" style="fill: none; stroke: #000000; stroke-width: 0.8; stroke-linejoin: miter; stroke-linecap: square"/>
   </g>
   <g id="text_15">
    <!-- Patient-level SHAP Radar Plot -->
    <g transform="translate(166.084531 17.077969) scale(0.13 -0.13)">
     <defs>
      <path id="DejaVuSans-2d" d="M 313 2009 
L 1997 2009 
L 1997 1497 
L 313 1497 
L 313 2009 
z
" transform="scale(0.015625)"/>
      <path id="DejaVuSans-76" d="M 191 3500 
L 800 3500 
L 1894 563 
L 2988 3500 
L 3597 3500 
L 2284 0 
L 1503 0 
L 191 3500 
z
" transform="scale(0.015625)"/>
      <path id="DejaVuSans-48" d="M 628 4666 
L 1259 4666 
L 1259 2753 
L 3553 2753 
L 3553 4666 
L 4184 4666 
L 4184 0 
L 3553 0 
L 3553 2222 
L 1259 2222 
L 1259 0 
L 628 0 
L 628 4666 
z
" transform="scale(0.015625)"/>
      <path id="DejaVuSans-52" d="M 2841 2188 
Q 3044 2119 3236 1894 
Q 3428 1669 3622 1275 
L 4263 0 
L 3584 0 
L 2988 1197 
Q 2756 1666 2539 1819 
Q 2322 1972 1947 1972 
L 1259 1972 
L 1259 0 
L 628 0 
L 628 4666 
L 2053 4666 
Q 2853 4666 3247 4331 
Q 3641 3997 3641 3322 
Q 3641 2881 3436 2590 
Q 3231 2300 2841 2188 
z
M 1259 4147 
L 1259 2491 
L 2053 2491 
Q 2509 2491 2742 2702 
Q 2975 2913 2975 3322 
Q 2975 3731 2742 3939 
Q 2509 4147 2053 4147 
L 1259 4147 
z
" transform="scale(0.015625)"/>
     </defs>
     <use xlink:href="#DejaVuSans-50"/>
     <use xlink:href="#DejaVuSans-61" transform="translate(55.802734 0)"/>
     <use xlink:href="#DejaVuSans-74" transform="translate(117.082031 0)"/>
     <use xlink:href="#DejaVuSans-69" transform="translate(156.291016 0)"/>
     <use xlink:href="#DejaVuSans-65" transform="translate(184.074219 0)"/>
     <use xlink:href="#DejaVuSans-6e" transform="translate(245.597656 0)"/>
     <use xlink:href="#DejaVuSans-74" transform="translate(308.976562 0)"/>
     <use xlink:href="#DejaVuSans-2d" transform="translate(348.185547 0)"/>
     <use xlink:href="#DejaVuSans-6c" transform="translate(384.269531 0)"/>
     <use xlink:href="#DejaVuSans-65" transform="translate(412.052734 0)"/>
     <use xlink:href="#DejaVuSans-76" transform="translate(473.576172 0)"/>
     <use xlink:href="#DejaVuSans-65" transform="translate(532.755859 0)"/>
     <use xlink:href="#DejaVuSans-6c" transform="translate(594.279297 0)"/>
     <use xlink:href="#DejaVuSans-20" transform="translate(622.0625 0)"/>
     <use xlink:href="#DejaVuSans-53" transform="translate(653.849609 0)"/>
     <use xlink:href="#DejaVuSans-48" transform="translate(717.326172 0)"/>
     <use xlink:href="#DejaVuSans-41" transform="translate(792.521484 0)"/>
     <use xlink:href="#DejaVuSans-50" transform="translate(860.929688 0)"/>
     <use xlink:href="#DejaVuSans-20" transform="translate(921.232422 0)"/>
     <use xlink:href="#DejaVuSans-52" transform="translate(953.019531 0)"/>
     <use xlink:href="#DejaVuSans-61" transform="translate(1020.251953 0)"/>
     <use xlink:href="#DejaVuSans-64" transform="translate(1081.53125 0)"/>
     <use xlink:href="#DejaVuSans-61" transform="translate(1145.007812 0)"/>
     <use xlink:href="#DejaVuSans-72" transform="translate(1206.287109 0)"/>
     <use xlink:href="#DejaVuSans-20" transform="translate(1247.400391 0)"/>
     <use xlink:href="#DejaVuSans-50" transform="translate(1279.1875 0)"/>
     <use xlink:href="#DejaVuSans-6c" transform="translate(1339.490234 0)"/>
     <use xlink:href="#DejaVuSans-6f" transform="translate(1367.273438 0)"/>
     <use xlink:href="#DejaVuSans-74" transform="translate(1428.455078 0)"/>
    </g>
    <!-- (Inner: Decrease risk | Outer: Increase risk) -->
    <g transform="translate(121.156328 31.703375) scale(0.13 -0.13)">
     <defs>
      <path id="DejaVuSans-3a" d="M 750 794 
L 1409 794 
L 1409 0 
L 750 0 
L 750 794 
z
M 750 3309 
L 1409 3309 
L 1409 2516 
L 750 2516 
L 750 3309 
z
" transform="scale(0.015625)"/>
      <path id="DejaVuSans-44" d="M 1259 4147 
L 1259 519 
L 2022 519 
Q 2988 519 3436 956 
Q 3884 1394 3884 2338 
Q 3884 3275 3436 3711 
Q 2988 4147 2022 4147 
L 1259 4147 
z
M 628 4666 
L 1925 4666 
Q 3281 4666 3915 4102 
Q 4550 3538 4550 2338 
Q 4550 1131 3912 565 
Q 3275 0 1925 0 
L 628 0 
L 628 4666 
z
" transform="scale(0.015625)"/>
      <path id="DejaVuSans-63" d="M 3122 3366 
L 3122 2828 
Q 2878 2963 2633 3030 
Q 2388 3097 2138 3097 
Q 1578 3097 1268 2742 
Q 959 2388 959 1747 
Q 959 1106 1268 751 
Q 1578 397 2138 397 
Q 2388 397 2633 464 
Q 2878 531 3122 666 
L 3122 134 
Q 2881 22 2623 -34 
Q 2366 -91 2075 -91 
Q 1284 -91 818 406 
Q 353 903 353 1747 
Q 353 2603 823 3093 
Q 1294 3584 2113 3584 
Q 2378 3584 2631 3529 
Q 2884 3475 3122 3366 
z
" transform="scale(0.015625)"/>
      <path id="DejaVuSans-6b" d="M 581 4863 
L 1159 4863 
L 1159 1991 
L 2875 3500 
L 3609 3500 
L 1753 1863 
L 3688 0 
L 2938 0 
L 1159 1709 
L 1159 0 
L 581 0 
L 581 4863 
z
" transform="scale(0.015625)"/>
      <path id="DejaVuSans-7c" d="M 1344 4891 
L 1344 -1509 
L 813 -1509 
L 813 4891 
L 1344 4891 
z
" transform="scale(0.015625)"/>
     </defs>
     <use xlink:href="#DejaVuSans-28"/>
     <use xlink:href="#DejaVuSans-49" transform="translate(39.013672 0)"/>
     <use xlink:href="#DejaVuSans-6e" transform="translate(68.505859 0)"/>
     <use xlink:href="#DejaVuSans-6e" transform="translate(131.884766 0)"/>
     <use xlink:href="#DejaVuSans-65" transform="translate(195.263672 0)"/>
     <use xlink:href="#DejaVuSans-72" transform="translate(256.787109 0)"/>
     <use xlink:href="#DejaVuSans-3a" transform="translate(296.150391 0)"/>
     <use xlink:href="#DejaVuSans-20" transform="translate(329.841797 0)"/>
     <use xlink:href="#DejaVuSans-44" transform="translate(361.628906 0)"/>
     <use xlink:href="#DejaVuSans-65" transform="translate(438.630859 0)"/>
     <use xlink:href="#DejaVuSans-63" transform="translate(500.154297 0)"/>
     <use xlink:href="#DejaVuSans-72" transform="translate(555.134766 0)"/>
     <use xlink:href="#DejaVuSans-65" transform="translate(593.998047 0)"/>
     <use xlink:href="#DejaVuSans-61" transform="translate(655.521484 0)"/>
     <use xlink:href="#DejaVuSans-73" transform="translate(716.800781 0)"/>
     <use xlink:href="#DejaVuSans-65" transform="translate(768.900391 0)"/>
     <use xlink:href="#DejaVuSans-20" transform="translate(830.423828 0)"/>
     <use xlink:href="#DejaVuSans-72" transform="translate(862.210938 0)"/>
     <use xlink:href="#DejaVuSans-69" transform="translate(903.324219 0)"/>
     <use xlink:href="#DejaVuSans-73" transform="translate(931.107422 0)"/>
     <use xlink:href="#DejaVuSans-6b" transform="translate(983.207031 0)"/>
     <use xlink:href="#DejaVuSans-20" transform="translate(1041.117188 0)"/>
     <use xlink:href="#DejaVuSans-7c" transform="translate(1072.904297 0)"/>
     <use xlink:href="#DejaVuSans-20" transform="translate(1106.595703 0)"/>
     <use xlink:href="#DejaVuSans-4f" transform="translate(1138.382812 0)"/>
     <use xlink:href="#DejaVuSans-75" transform="translate(1217.09375 0)"/>
     <use xlink:href="#DejaVuSans-74" transform="translate(1280.472656 0)"/>
     <use xlink:href="#DejaVuSans-65" transform="translate(1319.681641 0)"/>
     <use xlink:href="#DejaVuSans-72" transform="translate(1381.205078 0)"/>
     <use xlink:href="#DejaVuSans-3a" transform="translate(1420.568359 0)"/>
     <use xlink:href="#DejaVuSans-20" transform="translate(1454.259766 0)"/>
     <use xlink:href="#DejaVuSans-49" transform="translate(1486.046875 0)"/>
     <use xlink:href="#DejaVuSans-6e" transform="translate(1515.539062 0)"/>
     <use xlink:href="#DejaVuSans-63" transform="translate(1578.917969 0)"/>
     <use xlink:href="#DejaVuSans-72" transform="translate(1633.898438 0)"/>
     <use xlink:href="#DejaVuSans-65" transform="translate(1672.761719 0)"/>
     <use xlink:href="#DejaVuSans-61" transform="translate(1734.285156 0)"/>
     <use xlink:href="#DejaVuSans-73" transform="translate(1795.564453 0)"/>
     <use xlink:href="#DejaVuSans-65" transform="translate(1847.664062 0)"/>
     <use xlink:href="#DejaVuSans-20" transform="translate(1909.1875 0)"/>
     <use xlink:href="#DejaVuSans-72" transform="translate(1940.974609 0)"/>
     <use xlink:href="#DejaVuSans-69" transform="translate(1982.087891 0)"/>
     <use xlink:href="#DejaVuSans-73" transform="translate(2009.871094 0)"/>
     <use xlink:href="#DejaVuSans-6b" transform="translate(2061.970703 0)"/>
     <use xlink:href="#DejaVuSans-29" transform="translate(2119.880859 0)"/>
    </g>
   </g>
   <g id="legend_1">
    <g id="patch_5">
     <path d="M 476.701562 53.793813 
L 550.182812 53.793813 
Q 552.182812 53.793813 552.182812 51.793813 
L 552.182812 38.115688 
Q 552.182812 36.115688 550.182812 36.115688 
L 476.701562 36.115688 
Q 474.701562 36.115688 474.701562 38.115688 
L 474.701562 51.793813 
Q 474.701562 53.793813 476.701562 53.793813 
z
" style="fill: #ffffff; opacity: 0.8; stroke: #cccccc; stroke-linejoin: miter"/>
    </g>
    <g id="line2d_17">
     <path d="M 478.701562 44.214125 
L 488.701562 44.214125 
L 498.701562 44.214125 
" style="fill: none; stroke-dasharray: 5.55,2.4; stroke-dashoffset: 0; stroke: #808080; stroke-width: 1.5"/>
    </g>
    <g id="text_16">
     <!-- SHAP=0 -->
     <g transform="translate(506.701562 47.714125) scale(0.1 -0.1)">
      <defs>
       <path id="DejaVuSans-3d" d="M 678 2906 
L 4684 2906 
L 4684 2381 
L 678 2381 
L 678 2906 
z
M 678 1631 
L 4684 1631 
L 4684 1100 
L 678 1100 
L 678 1631 
z
" transform="scale(0.015625)"/>
      </defs>
      <use xlink:href="#DejaVuSans-53"/>
      <use xlink:href="#DejaVuSans-48" transform="translate(63.476562 0)"/>
      <use xlink:href="#DejaVuSans-41" transform="translate(138.671875 0)"/>
      <use xlink:href="#DejaVuSans-50" transform="translate(207.080078 0)"/>
      <use xlink:href="#DejaVuSans-3d" transform="translate(267.382812 0)"/>
      <use xlink:href="#DejaVuSans-30" transform="translate(351.171875 0)"/>
     </g>
    </g>
   </g>
  </g>
 </g>
 <defs>
  <clipPath id="p5cf0d61351">
   <path d="M 458.615937 267.676188 
C 458.615937 241.788821 453.516691 216.153176 443.610024 192.236367 
C 433.703358 168.319559 419.181932 146.586709 400.876799 128.281576 
C 382.571666 109.976443 360.838816 95.455017 336.922008 85.548351 
C 313.005199 75.641684 287.369554 70.542438 261.482188 70.542438 
C 235.594821 70.542438 209.959176 75.641684 186.042367 85.548351 
C 162.125559 95.455017 140.392709 109.976443 122.087576 128.281576 
C 103.782443 146.586709 89.261017 168.319559 79.354351 192.236367 
C 69.447684 216.153176 64.348438 241.788821 64.348438 267.676187 
C 64.348438 293.563554 69.447684 319.199199 79.354351 343.116008 
C 89.261017 367.032816 103.782443 388.765666 122.087576 407.070799 
C 140.392709 425.375932 162.125559 439.897358 186.042367 449.804024 
C 209.959176 459.710691 235.594821 464.809938 261.482187 464.809938 
C 287.369554 464.809938 313.005199 459.710691 336.922008 449.804024 
C 360.838816 439.897358 382.571666 425.375932 400.876799 407.070799 
C 419.181932 388.765666 433.703358 367.032816 443.610024 343.116008 
C 453.516691 319.199199 458.615937 293.563554 458.615937 267.676188 
M 261.482188 267.676188 
C 261.482188 267.676188 261.482188 267.676188 261.482188 267.676188 
C 261.482188 267.676188 261.482188 267.676188 261.482188 267.676188 
C 261.482188 267.676188 261.482188 267.676188 261.482188 267.676188 
C 261.482188 267.676188 261.482188 267.676188 261.482188 267.676188 
C 261.482188 267.676188 261.482188 267.676188 261.482188 267.676188 
C 261.482188 267.676188 261.482188 267.676188 261.482188 267.676188 
C 261.482188 267.676188 261.482188 267.676188 261.482188 267.676188 
C 261.482188 267.676188 261.482188 267.676188 261.482188 267.676188 
C 261.482188 267.676188 261.482188 267.676188 261.482188 267.676188 
C 261.482188 267.676188 261.482188 267.676188 261.482188 267.676188 
C 261.482188 267.676188 261.482188 267.676188 261.482188 267.676188 
C 261.482188 267.676188 261.482188 267.676188 261.482188 267.676188 
C 261.482188 267.676188 261.482188 267.676188 261.482188 267.676188 
C 261.482188 267.676188 261.482188 267.676188 261.482188 267.676188 
C 261.482188 267.676188 261.482188 267.676188 261.482188 267.676188 
C 261.482188 267.676188 261.482188 267.676188 261.482188 267.676188 
z
"/>
  </clipPath>
 </defs>
</svg>
